<svg xmlns="http://www.w3.org/2000/svg" width="85.342" height="85.334" viewBox="0 0 85.342 85.334"><defs><style>.a{fill:#c6ebda;}</style></defs><g transform="translate(-0.011 -0.027)"><g transform="translate(0.011 0.027)"><path class="a" d="M45.223,8.966A14.229,14.229,0,0,0,34.423,4a1.423,1.423,0,1,0,0,2.846A11.383,11.383,0,0,1,43.06,10.83a1.428,1.428,0,0,0,2.163-1.864Z" transform="translate(13.939 1.653)"/><path class="a" d="M68.294,19.909a19.92,19.92,0,0,0-38.56-6.986,14.129,14.129,0,0,0-10.785,7.114,16.634,16.634,0,0,0-1.878-.128,17.075,17.075,0,0,0-2.675,33.936,27.035,27.035,0,0,0-.171,3.059,28.458,28.458,0,1,0,56.915,0,27.033,27.033,0,0,0-.171-3.059,17.075,17.075,0,0,0-2.675-33.936ZM42.682,82.515A25.612,25.612,0,1,1,68.294,56.9,25.612,25.612,0,0,1,42.682,82.515ZM70.527,51.027a28.458,28.458,0,0,0-55.691,0A14.229,14.229,0,0,1,17.07,22.755a14.044,14.044,0,0,1,7.883,2.39,1.436,1.436,0,1,0,1.594-2.39,16.847,16.847,0,0,0-4.639-2.177,11.383,11.383,0,0,1,8.978-4.937H31.3a11.241,11.241,0,0,1,6.83,2.277,1.423,1.423,0,1,0,1.707-2.277,14.1,14.1,0,0,0-7.015-2.76,17.075,17.075,0,0,1,32.627,7.029v.242a16.8,16.8,0,0,0-6.631,2.6,1.425,1.425,0,0,0,1.594,2.362,14.044,14.044,0,0,1,7.883-2.362,14.229,14.229,0,0,1,2.234,28.273Z" transform="translate(-0.011 -0.027)"/><path class="a" d="M50.3,33.254a4.269,4.269,0,0,0-1.252-3.017,4.382,4.382,0,0,0-6.033,0L34.651,38.6l-8.367-8.367a4.382,4.382,0,0,0-6.033,0,4.269,4.269,0,0,0,0,6.033l8.367,8.367L20.251,53a4.269,4.269,0,0,0,0,6.033,4.382,4.382,0,0,0,6.033,0l8.367-8.367,8.367,8.367A4.269,4.269,0,1,0,49.05,53l-8.367-8.367,8.367-8.367A4.269,4.269,0,0,0,50.3,33.254Zm-3.258,1.01-9.377,9.363a1.423,1.423,0,0,0,0,2.02l9.377,9.363a1.429,1.429,0,1,1-2.02,2.02l-9.363-9.377a1.423,1.423,0,0,0-2.02,0L24.278,57.03a1.429,1.429,0,1,1-2.02-2.02l9.377-9.363a1.423,1.423,0,0,0,0-2.02l-9.377-9.363a1.429,1.429,0,1,1,2.02-2.02l9.363,9.377a1.423,1.423,0,0,0,2.02,0l9.363-9.377a1.429,1.429,0,1,1,2.02,2.02Z" transform="translate(8.02 12.239)"/></g></g></svg>