<svg xmlns="http://www.w3.org/2000/svg" width="54.249" height="53.124" viewBox="0 0 54.249 53.124"><defs><style>.a{fill:#00a859;}</style></defs><path class="a" d="M206.339,83.786a.8.8,0,0,0-.795.795V85.7a.795.795,0,1,0,1.589,0V84.581A.8.8,0,0,0,206.339,83.786Z" transform="translate(-183.766 -75.471)"/><path class="a" d="M289.255,123.155l.794-.794a.795.795,0,1,0-1.124-1.124l-.794.794a.795.795,0,1,0,1.124,1.124Z" transform="translate(-257.394 -108.746)"/><path class="a" d="M323.928,212.443a.795.795,0,1,0,0-1.589H322.8a.795.795,0,1,0,0,1.589Z" transform="translate(-287.891 -189.076)"/><path class="a" d="M208.629,331.2v1.123a.795.795,0,1,0,1.589,0V331.2a.795.795,0,1,0-1.589,0Z" transform="translate(-186.524 -295.96)"/><path class="a" d="M115.925,295.36a.8.8,0,0,0,1.124,0l.794-.794a.795.795,0,0,0-1.124-1.124l-.794.794A.8.8,0,0,0,115.925,295.36Z" transform="translate(-103.434 -262.705)"/><path class="a" d="M80.393,212.443a.795.795,0,1,0,0-1.589H79.27a.795.795,0,1,0,0,1.589Z" transform="translate(-70.16 -189.076)"/><path class="a" d="M116.72,123.155a.795.795,0,0,0,1.124-1.124l-.794-.794a.795.795,0,1,0-1.124,1.124Z" transform="translate(-103.434 -108.745)"/><path class="a" d="M181.961,149.394l-1.446-1.408a.795.795,0,1,0-1.109,1.139l2.795,2.722a.8.8,0,0,0,1.349-.569v-7.52a.795.795,0,1,0-1.589,0Z" transform="translate(-160.182 -128.377)"/><path class="a" d="M45,30.427a22.809,22.809,0,0,0,.144-2.544,22.478,22.478,0,0,0-6.193-15.531A.795.795,0,1,0,37.8,13.446a20.9,20.9,0,0,1,5.757,14.437c0,.677-.034,1.36-.1,2.04a14.458,14.458,0,0,0-3.444-.477c.047-.522.073-1.045.073-1.564a17.512,17.512,0,1,0-34.08,5.686.795.795,0,0,0,1.5-.516A15.925,15.925,0,1,1,38.5,27.883a16.085,16.085,0,0,1-.084,1.623A14.516,14.516,0,0,0,25.264,43.578,15.93,15.93,0,0,1,8.775,35.836a.795.795,0,1,0-1.376.8,17.53,17.53,0,0,0,17.914,8.551,14.389,14.389,0,0,0,.709,3.4A20.984,20.984,0,1,1,22.573,6.9,20.77,20.77,0,0,1,35.535,11.38a.795.795,0,1,0,.983-1.249A22.344,22.344,0,0,0,22.573,5.31a22.573,22.573,0,1,0,4.058,44.781A14.494,14.494,0,0,0,48.088,55.8a.795.795,0,1,0-.915-1.3,12.92,12.92,0,1,1,2.236-2A.795.795,0,1,0,50.6,53.556,14.494,14.494,0,0,0,45,30.427Z" transform="translate(0 -5.31)"/><path class="a" d="M357.464,275.993a2.384,2.384,0,1,0-4.768,0v9.489a2.384,2.384,0,0,0,4.768,0Zm-1.589,9.489a.795.795,0,1,1-1.589,0v-9.489a.795.795,0,1,1,1.589,0Z" transform="translate(-315.326 -245.181)"/><path class="a" d="M355.08,411.607a2.387,2.387,0,0,0-2.384,2.384V415a2.384,2.384,0,1,0,4.768,0v-1.012A2.387,2.387,0,0,0,355.08,411.607Zm.795,3.4a.795.795,0,1,1-1.589,0v-1.012a.795.795,0,0,1,1.589,0Z" transform="translate(-315.326 -368.558)"/></svg>