<svg xmlns="http://www.w3.org/2000/svg" width="58.863" height="58.977" viewBox="0 0 58.863 58.977"><defs><style>.a{fill:#00a859;}</style></defs><g transform="translate(-0.494)"><path class="a" d="M358.166,249.819l-.606,3.535a.862.862,0,0,0,1.251.909l3.175-1.669,3.175,1.669a.862.862,0,0,0,1.251-.909l-.606-3.535,2.568-2.5a.862.862,0,0,0-.478-1.471l-3.549-.516-1.587-3.216a.862.862,0,0,0-1.547,0l-1.588,3.216-3.549.516a.862.862,0,0,0-.478,1.471Zm2.155-2.849a.862.862,0,0,0,.649-.472l1.015-2.056L363,246.5a.862.862,0,0,0,.649.472l2.269.33-1.642,1.6a.862.862,0,0,0-.248.763l.388,2.26-2.029-1.067a.862.862,0,0,0-.8,0l-2.03,1.067.388-2.26a.862.862,0,0,0-.248-.763l-1.642-1.6Z" transform="translate(-314.048 -213.852)"/><path class="a" d="M42.166,174.673l-.606,3.535a.862.862,0,0,0,1.251.909l3.175-1.669,3.175,1.669a.862.862,0,0,0,1.251-.909l-.606-3.535,2.568-2.5A.862.862,0,0,0,51.9,170.7l-3.549-.516-1.587-3.216a.862.862,0,0,0-1.547,0l-1.588,3.216-3.549.516a.862.862,0,0,0-.478,1.471Zm2.155-2.849a.862.862,0,0,0,.649-.472l1.015-2.056L47,171.353a.862.862,0,0,0,.649.472l2.269.33-1.642,1.6a.862.862,0,0,0-.248.763l.388,2.26-2.029-1.067a.863.863,0,0,0-.8,0l-2.03,1.067.388-2.26a.862.862,0,0,0-.248-.763l-1.642-1.6Z" transform="translate(-34.377 -147.346)"/><path class="a" d="M184.979,5.72V6.768a5,5,0,0,0,4.135,4.921v2.419a5.052,5.052,0,0,0-4.153,4.112h-1.207a.863.863,0,0,0,0,1.725h12.379a.863.863,0,0,0,0-1.725h-1.242a5.052,5.052,0,0,0-4.053-4.094V11.689a5,5,0,0,0,4.135-4.921V5.711A4.018,4.018,0,0,0,197.58,4.39a4.975,4.975,0,0,0,.972-3.654A.863.863,0,0,0,197.7,0H182.189a.862.862,0,0,0-.853.736,4.975,4.975,0,0,0,.972,3.654A4.038,4.038,0,0,0,184.979,5.72Zm8.149,12.5h-6.4a3.316,3.316,0,0,1,6.4,0Zm3.145-14.956a2.246,2.246,0,0,1-1.3.7V1.725h1.878A2.717,2.717,0,0,1,196.274,3.263ZM186.7,1.725h6.545V4.805a.875.875,0,0,0-.006.1.853.853,0,0,0,.006.1V6.768a3.272,3.272,0,0,1-6.545,0Zm-1.725,0V3.975a2.282,2.282,0,0,1-1.359-.7,2.71,2.71,0,0,1-.583-1.546Z" transform="translate(-160.018)"/><path class="a" d="M58.495,237.416H57.163v-11.3a2.219,2.219,0,0,0-2.216-2.217H40.111a2.2,2.2,0,0,0-.611.088v-18.2a2.219,2.219,0,0,0-2.216-2.217H22.448a2.219,2.219,0,0,0-2.216,2.217v9.165a2.209,2.209,0,0,0-.492-.057H4.9a2.219,2.219,0,0,0-2.216,2.216v6.741a.863.863,0,0,0,1.725,0v-6.741a.492.492,0,0,1,.492-.492H19.74a.492.492,0,0,1,.492.492v20.307H4.412V228.1a.863.863,0,0,0-1.725,0v9.312H1.356a.862.862,0,0,0,0,1.725H58.495a.862.862,0,0,0,0-1.725Zm-36.538,0V205.784a.492.492,0,0,1,.491-.492H37.284a.493.493,0,0,1,.491.492v31.632H21.956Zm17.663,0v-11.3a.493.493,0,0,1,.491-.492H54.947a.493.493,0,0,1,.492.492v11.3Z" transform="translate(0 -180.164)"/></g></svg>