<svg xmlns="http://www.w3.org/2000/svg" width="54.392" height="53.986" viewBox="0 0 54.392 53.986"><defs><style>.a{fill:#00a859;}</style></defs><path class="a" d="M23.044,8.714a1.807,1.807,0,0,0,1.43-1.767V2.318a1.818,1.818,0,0,0-.653-1.4A1.787,1.787,0,0,0,22.358.529a27.2,27.2,0,0,0,3.424,53.922q.717.036,1.429.036a26.92,26.92,0,0,0,15.556-4.9,1.784,1.784,0,0,0,.754-1.31A1.821,1.821,0,0,0,43,46.831l-3.279-3.277a1.805,1.805,0,0,0-2.268-.233,19.033,19.033,0,1,1-14.4-34.607ZM6.463,29.539A20.839,20.839,0,0,0,38.429,44.846l-.49-.763.5.752,3.292,3.271A25.384,25.384,0,1,1,22.661,2.318L22.65,6.944A20.867,20.867,0,0,0,6.463,29.539Zm0,0" transform="translate(0.002 -0.501)"/><path class="a" d="M283.715.527a1.783,1.783,0,0,0-1.464.392,1.817,1.817,0,0,0-.654,1.4V6.945a1.808,1.808,0,0,0,1.431,1.767,19.152,19.152,0,0,1,14.886,18.577,18.912,18.912,0,0,1-2.937,10.135,1.809,1.809,0,0,0,.242,2.257l3.285,3.286a1.819,1.819,0,0,0,1.288.534c.055,0,.111,0,.167-.007a1.784,1.784,0,0,0,1.311-.763A27.2,27.2,0,0,0,283.715.527Zm16.072,41.158L296.5,38.4l.009-.007a20.721,20.721,0,0,0,3.218-11.1A20.97,20.97,0,0,0,283.411,6.945L283.4,2.312a25.386,25.386,0,0,1,16.391,39.373Zm0,0" transform="translate(-251.682 -0.499)"/></svg>