<svg xmlns="http://www.w3.org/2000/svg" width="46.617" height="53.124" viewBox="0 0 46.617 53.124"><defs><style>.a{fill:#00a859;}</style></defs><path class="a" d="M64.7,8.771,68.085,2.3A1.572,1.572,0,0,0,66.692,0H52.3a3.1,3.1,0,0,0-3.045,2.442L48.147,7.431A23.309,23.309,0,1,0,64.7,8.771ZM54.665,51.533A21.722,21.722,0,0,1,47.749,9.222L43.586,27.955a1.734,1.734,0,0,0,2.185,2.04l9.668-2.859-6.391,16.04a1.18,1.18,0,0,0,.482,1.46,1.2,1.2,0,0,0,.634.183,1.185,1.185,0,0,0,.887-.4l3.867-4.335a.8.8,0,0,0-1.187-1.059l-2.379,2.667,5.7-14.31A1.409,1.409,0,0,0,55.346,25.5L45.32,28.469a.144.144,0,0,1-.181-.169l5.67-25.513a1.519,1.519,0,0,1,1.492-1.2H66.662L57.8,18.511a1.623,1.623,0,0,0,1.641,2.364l11.8-1.486-.77.863a.784.784,0,0,0-.1.109L55.852,36.645A.8.8,0,1,0,57.039,37.7l13.8-15.469A17.858,17.858,0,1,1,44.78,14.943a.8.8,0,0,0-.882-1.324,19.444,19.444,0,1,0,28.081,7.334l.739-.828a1.428,1.428,0,0,0-1.244-2.368l-1.413.178a19.456,19.456,0,0,0-5.236-4.7.8.8,0,1,0-.832,1.355A17.859,17.859,0,0,1,68.2,18.169L59.246,19.3a.033.033,0,0,1-.033-.048l4.747-9.067a21.721,21.721,0,0,1-9.294,41.352Z" transform="translate(-31.357)"/></svg>