<svg xmlns="http://www.w3.org/2000/svg" width="48.198" height="40.038" viewBox="0 0 48.198 40.038"><defs><style>.a{fill:none;stroke:#00a859;stroke-linecap:round;stroke-linejoin:round;stroke-width:3px;}</style></defs><g transform="translate(0 -2.942)"><path class="a" d="M34.371,34.827V30.718A8.218,8.218,0,0,0,26.153,22.5H9.718A8.218,8.218,0,0,0,1.5,30.718v4.109" transform="translate(0 6.653)"/><path class="a" d="M23.936,12.718A8.218,8.218,0,1,1,15.718,4.5a8.218,8.218,0,0,1,8.218,8.218Z" transform="translate(2.218)"/><path class="a" d="M36.163,34.755V30.646A8.218,8.218,0,0,0,30,22.7" transform="translate(10.534 6.725)"/><path class="a" d="M24,4.7a8.218,8.218,0,0,1,0,15.922" transform="translate(8.317 0.072)"/></g></svg>