<svg xmlns="http://www.w3.org/2000/svg" width="28" height="28.785" viewBox="0 0 28 28.785"><defs><style>.a{fill:#102A49;}</style></defs><path class="a" d="M28.1,18.8a11.216,11.216,0,0,0,.1-1.41,11.216,11.216,0,0,0-.1-1.41l3.037-2.375a.726.726,0,0,0,.173-.921l-2.879-4.98a.723.723,0,0,0-.878-.317L23.972,8.829a10.515,10.515,0,0,0-2.432-1.41L20.993,3.6a.7.7,0,0,0-.705-.6H14.531a.7.7,0,0,0-.705.6l-.547,3.814a11.058,11.058,0,0,0-2.432,1.41L7.262,7.39a.7.7,0,0,0-.878.317l-2.879,4.98a.71.71,0,0,0,.173.921l3.037,2.375a11.414,11.414,0,0,0-.1,1.41,11.414,11.414,0,0,0,.1,1.41L3.679,21.178a.726.726,0,0,0-.173.921l2.879,4.98a.723.723,0,0,0,.878.317l3.584-1.439a10.515,10.515,0,0,0,2.432,1.41l.547,3.814a.7.7,0,0,0,.705.6h5.757a.7.7,0,0,0,.705-.6l.547-3.814a11.058,11.058,0,0,0,2.432-1.41L27.556,27.4a.7.7,0,0,0,.878-.317l2.879-4.98a.726.726,0,0,0-.173-.921L28.1,18.8ZM17.409,22.43a5.037,5.037,0,1,1,5.037-5.037A5.043,5.043,0,0,1,17.409,22.43Z" transform="translate(-3.406 -3)"/></svg>