<svg xmlns="http://www.w3.org/2000/svg" width="63.645" height="37.126" viewBox="0 0 63.645 37.126"><defs><style>.a{fill:#0c4a4d;}</style></defs><g transform="translate(0 -106.666)"><g transform="translate(0 106.666)"><g transform="translate(0 0)"><path class="a" d="M15.381,109.583c-2.122-2.122-11.138-2.652-14.055-2.917a.974.974,0,0,0-.8.265A2.011,2.011,0,0,0,0,107.992v23.867a1.253,1.253,0,0,0,1.326,1.326H9.282a1.458,1.458,0,0,0,1.326-.8c0-.8,4.773-14.85,5.3-21.745A1.059,1.059,0,0,0,15.381,109.583Z" transform="translate(0 -106.666)"/></g></g><g transform="translate(22.507 112.235)"><g transform="translate(0 0)"><path class="a" d="M202.31,155.179c-2.652-.8-5.038-1.856-7.16-2.652-4.773-2.122-6.895-1.061-11.138,3.182-1.856,1.856-3.182,4.508-2.917,5.569,0,.265,0,.265.53.53,1.326.53,3.182.8,5.038-2.122a1.378,1.378,0,0,1,1.061-.53,4.915,4.915,0,0,0,1.856-.53,12.928,12.928,0,0,1,1.856-.8h.53c.265,0,.8.265,1.061.265,1.326,1.326,3.713,3.182,6.1,5.3,3.713,2.917,7.425,6.1,9.282,8.486h.265C206.818,166.582,203.636,157.566,202.31,155.179Z" transform="translate(-181.061 -151.467)"/></g></g><g transform="translate(45.081 109.318)"><g transform="translate(0 0)"><path class="a" d="M379.9,128a46.5,46.5,0,0,0-16.442,2.652l-.8.8a1.6,1.6,0,0,0,.265,1.061c1.591,2.652,6.895,17.237,7.69,20.95a1.762,1.762,0,0,0,1.326,1.061H379.9a1.253,1.253,0,0,0,1.326-1.326V129.326A1.253,1.253,0,0,0,379.9,128Z" transform="translate(-362.666 -128)"/></g></g><g transform="translate(13.79 114.622)"><g transform="translate(0 0)"><path class="a" d="M145.143,191.351c-1.061-2.387-5.569-5.834-9.547-9.016-2.121-1.856-4.243-3.447-5.834-4.773-.265.265-.8.265-.8.53a5,5,0,0,1-2.122.53c-2.121,2.652-4.773,3.713-7.69,2.652a3.135,3.135,0,0,1-2.387-2.387c-.53-2.652,1.856-6.364,3.713-8.221h-5.3a135.2,135.2,0,0,1-4.243,15.911,29.976,29.976,0,0,0,2.917,2.917c5.038,4.243,10.873,8.486,11.933,9.282a7.538,7.538,0,0,0,3.182,1.061h.8l-4.243-4.243a1.313,1.313,0,0,1,1.856-1.856l5.3,5.3c.53.53,1.061.265,1.591.265.8-.265,1.061-.8,1.326-1.591l-6.1-6.1a1.313,1.313,0,1,1,1.856-1.856l6.63,6.63a2.836,2.836,0,0,0,2.122,0c.265-.265.8-.53,1.061-1.061L133.74,187.9a1.313,1.313,0,0,1,1.856-1.856l7.69,7.69a1.754,1.754,0,0,0,1.591-.265A1.8,1.8,0,0,0,145.143,191.351Z" transform="translate(-110.934 -170.667)"/></g></g></g></svg>