<svg xmlns="http://www.w3.org/2000/svg" width="329.5" height="363.843" viewBox="0 0 329.5 363.843"><defs><style>.a{opacity:0.375;}.b{fill:none;}.c,.d{stroke:none;}.d{fill:#4aa561;}</style></defs><g class="a" transform="translate(-13.274 -4187.086)"><g transform="translate(13.274 4187.085)"><g class="b" transform="translate(20.726 35.914)"><path class="c" d="M41.248-.185C103.209-62.146,200.341-36.908,262.3,25.053s61.961,185.883,0,247.845S76.419,350.511,14.458,288.55-20.713,61.776,41.248-.185Z"/><path class="d" d="M 128.4725494384766 -35.61444091796875 C 112.1957397460938 -35.61444091796875 96.70175170898438 -32.75396728515625 82.42083740234375 -27.11239624023438 C 67.26039123535156 -21.1234130859375 53.47914123535156 -11.99246215820312 41.45989990234375 0.02679443359375 C 33.89309692382812 7.593597412109375 26.67990112304688 16.87979125976562 20.0206298828125 27.62750244140625 C 13.57623291015625 38.0284423828125 7.6768798828125 49.75094604492188 2.4864501953125 62.46949768066406 C -7.779052734375 87.62374877929688 -14.97381591796875 115.8917541503906 -18.320068359375 144.2174987792969 C -20.01611328125 158.5747528076172 -20.69305419921875 172.7308959960938 -20.33206176757812 186.2927551269531 C -19.95849609375 200.3261413574219 -18.47256469726562 213.6679077148438 -15.91549682617188 225.9473419189453 C -13.24041748046875 238.7936401367188 -9.38336181640625 250.5080413818359 -4.451446533203125 260.7651062011719 C 0.742034912109375 271.5663452148438 7.175506591796875 280.8431396484375 14.67019653320312 288.3377990722656 C 27.73454284667969 301.4021606445312 43.94709777832031 311.42578125 62.85739135742188 318.1303100585938 C 71.78340148925781 321.2948913574219 81.3182373046875 323.7052612304688 91.1971435546875 325.2943420410156 C 100.8241882324219 326.8429565429688 110.8759460449219 327.6281433105469 121.0730895996094 327.6281433105469 C 146.8479919433594 327.6281433105469 173.4523468017578 322.636962890625 198.0100402832031 313.194091796875 C 210.3390960693359 308.4533386230469 222.0074462890625 302.6468505859375 232.6910400390625 295.9358520507812 C 243.6633453369141 289.0434875488281 253.5547485351562 281.2207946777344 262.0904541015625 272.68505859375 C 269.6543884277344 265.1211547851562 276.4801330566406 256.4263000488281 282.3780822753906 246.8421478271484 C 288.0777893066406 237.5801391601562 292.954833984375 227.4194488525391 296.873779296875 216.6423950195312 C 300.6963806152344 206.1301574707031 303.6233520507812 194.991455078125 305.5732421875 183.5357055664062 C 307.4976501464844 172.229736328125 308.473388671875 160.6018371582031 308.473388671875 148.9749450683594 C 308.4734497070312 137.3480529785156 307.4976501464844 125.7200927734375 305.5732421875 114.4141998291016 C 303.6233520507812 102.9583892822266 300.6963806152344 91.8197021484375 296.873779296875 81.30744934082031 C 292.954833984375 70.5303955078125 288.0777893066406 60.3697509765625 282.3780822753906 51.10769653320312 C 276.4801330566406 41.52354431152344 269.6543884277344 32.82868957519531 262.0904541015625 25.26480102539062 C 252.8795013427734 16.05380249023438 242.8298034667969 7.601043701171875 232.2206420898438 0.14129638671875 C 221.6034393310547 -7.324066162109375 210.4444427490234 -13.78179931640625 199.0535430908203 -19.05255126953125 C 187.4935913085938 -24.4014892578125 175.6999969482422 -28.5244140625 164.0004425048828 -31.30670166015625 C 151.9808044433594 -34.16510009765625 140.0274963378906 -35.61444091796875 128.4725494384766 -35.61444091796875 M 128.4725646972656 -35.91445922851562 C 175.6348571777344 -35.91445922851562 225.2522125244141 -11.99774169921875 262.3025817871094 25.05264282226562 C 324.2637023925781 87.0137939453125 324.2637023925781 210.9360961914062 262.3025817871094 272.8971862792969 C 227.4721374511719 307.7276611328125 173.0498504638672 327.9281311035156 121.0731201171875 327.9281311035156 C 80.58656311035156 327.9281311035156 41.5887451171875 315.6806030273438 14.45803833007812 288.5499572753906 C -47.50311279296875 226.5888519287109 -20.71340942382812 61.77580261230469 41.24774169921875 -0.18536376953125 C 66.15852355957031 -25.09613037109375 96.76304626464844 -35.91445922851562 128.4725646972656 -35.91445922851562 Z"/></g><g class="b" transform="translate(31.038 46.876)"><path class="c" d="M37.368-2.422C95.45-60.5,186.5-36.846,244.584,21.236s58.082,174.247,0,232.329S70.338,326.32,12.255,268.238-20.714,55.66,37.368-2.422Z"/><path class="d" d="M 119.1323699951172 -35.61447143554688 C 103.8769226074219 -35.61447143554688 89.35517883300781 -32.9334716796875 75.97052001953125 -27.64596557617188 C 61.76156616210938 -22.03286743164062 48.84516906738281 -13.47491455078125 37.58016967773438 -2.209930419921875 C 30.48806762695312 4.88214111328125 23.72732543945312 13.58587646484375 17.4857177734375 23.65953063964844 C 11.44532775878906 33.40847778320312 5.915771484375 44.39617919921875 1.050674438476562 56.31753540039062 C -8.571563720703125 79.89558410644531 -15.31549072265625 106.3922729492188 -18.4520263671875 132.9431304931641 C -20.04183959960938 146.4006805419922 -20.67633056640625 159.6697387695312 -20.33798217773438 172.3816223144531 C -19.98782348632812 185.5354309082031 -18.5950927734375 198.0408325195312 -16.19827270507812 209.5504760742188 C -13.69097900390625 221.5911254882812 -10.07586669921875 232.5707244873047 -5.453369140625 242.184326171875 C -0.5859375 252.3074798583984 5.443572998046875 261.0018310546875 12.46757507324219 268.0257873535156 C 24.71206665039062 280.2703247070312 39.90727233886719 289.6649780273438 57.63111877441406 295.9487915039062 C 65.99726867675781 298.9148864746094 74.93412780761719 301.174072265625 84.19342041015625 302.6634826660156 C 93.21682739257812 304.114990234375 102.6383209228516 304.8509216308594 112.1961212158203 304.8509216308594 C 136.3551635742188 304.8509216308594 161.2917175292969 300.1725769042969 184.3099212646484 291.3217163085938 C 195.8660278320312 286.878173828125 206.8028717041016 281.4357299804688 216.8166198730469 275.1455383300781 C 227.100830078125 268.6853637695312 236.3719177246094 261.353271484375 244.3722686767578 253.3528747558594 C 251.461669921875 246.2635345458984 257.8592224121094 238.1141815185547 263.3871765136719 229.1312255859375 C 268.7294311523438 220.4500732421875 273.3005676269531 210.9266815185547 276.9737854003906 200.8254699707031 C 280.5566711425781 190.9723815917969 283.3001098632812 180.5320739746094 285.1277770996094 169.7945861816406 C 286.9315185546875 159.1974182128906 287.8461303710938 148.2985229492188 287.8461303710938 137.4005279541016 C 287.8461303710938 126.5025329589844 286.9315185546875 115.6036224365234 285.1277770996094 105.0064849853516 C 283.3001098632812 94.26898193359375 280.5566711425781 83.82867431640625 276.9737854003906 73.9755859375 C 273.3005676269531 63.87437438964844 268.7294311523438 54.35098266601562 263.3871765136719 45.66983032226562 C 257.8592224121094 36.68687438964844 251.461669921875 28.53752136230469 244.3722686767578 21.44818115234375 C 235.7386779785156 12.8145751953125 226.3190155029297 4.891693115234375 216.3748779296875 -2.1004638671875 C 206.4232177734375 -9.097808837890625 195.9637756347656 -15.1507568359375 185.2870178222656 -20.091064453125 C 174.4518127441406 -25.10467529296875 163.3977661132812 -28.96908569335938 152.4318237304688 -31.57687377929688 C 141.1660766601562 -34.25601196289062 129.9625244140625 -35.61447143554688 119.1323699951172 -35.61447143554688 M 119.1323699951172 -35.91445922851562 C 163.3422241210938 -35.91445922851562 209.8534851074219 -13.49490356445312 244.5844268798828 21.23602294921875 C 302.6666870117188 79.31828308105469 302.6666870117188 195.4827880859375 244.5844268798828 253.5650329589844 C 211.9344177246094 286.2150268554688 160.9190063476562 305.1509399414062 112.1961212158203 305.1509399414062 C 74.24409484863281 305.1509399414062 37.68768310546875 293.6701965332031 12.25541687011719 268.2379150390625 C -45.82684326171875 210.1556243896484 -20.7142333984375 55.66017150878906 37.36802673339844 -2.42205810546875 C 60.71934509277344 -25.77337646484375 89.40794372558594 -35.91445922851562 119.1323699951172 -35.91445922851562 Z"/></g><g class="b" transform="translate(41.853 58.818)"><path class="c" d="M33.3-4.767c54.015-54.015,138.691-32.014,192.706,22s54.015,162.045,0,216.06S63.961,300.954,9.946,246.939-20.715,49.247,33.3-4.767Z"/><path class="d" d="M 109.3384628295898 -35.61444091796875 C 95.15396118164062 -35.61444091796875 81.65168762207031 -33.1217041015625 69.20683288574219 -28.2054443359375 C 55.99555969238281 -22.98648071289062 43.98605346679688 -15.02938842773438 33.511962890625 -4.555313110351562 C 26.91764831542969 2.039016723632812 20.63137817382812 10.13197326660156 14.82769775390625 19.498779296875 C 9.210922241210938 28.56405639648438 4.069107055664062 38.78128051757812 -0.4548492431640625 49.86674499511719 C -9.402587890625 71.79191589355469 -15.67376708984375 96.43124389648438 -18.59043884277344 121.120964050293 C -20.06881713867188 133.6351013183594 -20.65884399414062 145.9739685058594 -20.34417724609375 157.7946929931641 C -20.01863098144531 170.0260925292969 -18.72349548339844 181.6545562744141 -16.49485778808594 192.3569641113281 C -14.16343688964844 203.5527801513672 -10.80203247070312 213.7618713378906 -6.503982543945312 222.7007446289062 C -1.9783935546875 232.1128234863281 3.627471923828125 240.1964263916016 10.15791320800781 246.7268371582031 C 21.54278564453125 258.1116943359375 35.67127990722656 266.8467712402344 52.15097045898438 272.6895141601562 C 59.9300537109375 275.447509765625 68.2398681640625 277.5481872558594 76.84954833984375 278.93310546875 C 85.23995971679688 280.2827758789062 94.00054931640625 280.9671020507812 102.8879699707031 280.9671020507812 C 125.3526458740234 280.9671020507812 148.5403747558594 276.6168823242188 169.9443359375 268.3866882324219 C 180.6899108886719 264.2548217773438 190.8596496582031 259.194091796875 200.1710052490234 253.3450622558594 C 209.7337341308594 247.3381500244141 218.3543243408203 240.5204620361328 225.7933349609375 233.0814666748047 C 232.3851013183594 226.4897003173828 238.3336029052734 218.9123229980469 243.4736022949219 210.5598297119141 C 248.4409637451172 202.4878234863281 252.6914215087891 193.6325531005859 256.1068725585938 184.2400512695312 C 259.4385070800781 175.0781555175781 261.9894714355469 165.3701477050781 263.6889038085938 155.3858337402344 C 265.3661804199219 145.5319213867188 266.2166137695312 135.3974304199219 266.2166137695312 125.2637405395508 C 266.2166137695312 115.1301040649414 265.3661804199219 104.99560546875 263.6889038085938 95.14169311523438 C 261.9894714355469 85.15737915039062 259.4385070800781 75.44937133789062 256.1068725585938 66.28746032714844 C 252.6914215087891 56.89497375488281 248.4409637451172 48.03968811035156 243.4736022949219 39.96769714355469 C 238.3336029052734 31.61518859863281 232.3851013183594 24.03782653808594 225.7933349609375 17.44606018066406 C 217.7651977539062 9.417922973632812 209.0060577392578 2.05059814453125 199.75927734375 -4.451171875 C 190.5055541992188 -10.95780944824219 180.7796478271484 -16.58621215820312 170.8516845703125 -21.18002319335938 C 160.7765502929688 -25.84197998046875 150.4978637695312 -29.43527221679688 140.3012390136719 -31.86016845703125 C 129.825927734375 -34.351318359375 119.4085540771484 -35.61444091796875 109.3384628295898 -35.61444091796875 M 109.3384780883789 -35.91445922851562 C 150.4524536132812 -35.91445922851562 193.7066345214844 -15.06491088867188 226.0054626464844 17.23391723632812 C 280.0203247070312 71.24882507324219 280.0203247070312 179.2786865234375 226.0054626464844 233.2936096191406 C 195.6418609619141 263.6571960449219 148.1989288330078 281.26708984375 102.8879547119141 281.26708984375 C 67.59361267089844 281.26708984375 33.59710693359375 270.5903015136719 9.945785522460938 246.93896484375 C -44.06912231445312 192.9240570068359 -20.715087890625 49.24746704101562 33.29983520507812 -4.767440795898438 C 55.01593017578125 -26.4835205078125 81.695556640625 -35.91445922851562 109.3384780883789 -35.91445922851562 Z"/></g><g class="b" transform="translate(50.739 68.629)"><path class="c" d="M29.957-6.694C80.63-57.368,160.067-36.727,210.74,13.946s50.673,152.019,0,202.692S58.721,280.112,8.048,229.439-20.716,43.979,29.957-6.694Z"/><path class="d" d="M 101.2915344238281 -35.61445617675781 C 87.98695373535156 -35.61445617675781 75.32232666015625 -33.27635192871094 63.64958190917969 -28.66511535644531 C 51.25804138183594 -23.76998901367188 39.99369812011719 -16.30657958984375 30.16941833496094 -6.482330322265625 C 23.98411560058594 -0.2969970703125 18.08761596679688 7.29412841796875 12.64378356933594 16.08026123046875 C 7.375030517578125 24.58375549316406 2.551834106445312 34.16796875 -1.691879272460938 44.56658935546875 C -10.08537292480469 65.13375854492188 -15.96812438964844 88.24700927734375 -18.70417785644531 111.4075469970703 C -20.09095764160156 123.1465911865234 -20.64447021484375 134.7211303710938 -20.34928894042969 145.8096771240234 C -20.04388427734375 157.2832641601562 -18.82904052734375 168.1911315917969 -16.73846435546875 178.2303466796875 C -14.5516357421875 188.7319641113281 -11.39866638183594 198.3080139160156 -7.367218017578125 206.6924743652344 C -3.12249755859375 215.5203857421875 2.135330200195312 223.1021270751953 8.260238647460938 229.22705078125 C 18.93875122070312 239.9055480957031 32.19082641601562 248.0987548828125 47.64833068847656 253.5790863037109 C 54.94511413574219 256.1660766601562 62.73970031738281 258.136474609375 70.81558227539062 259.435546875 C 78.68595886230469 260.7015380859375 86.90353393554688 261.3434753417969 95.24008178710938 261.3434753417969 C 116.3127059936523 261.3434753417969 138.0634918212891 257.2627868652344 158.1410827636719 249.5426330566406 C 168.2207489013672 245.6668395996094 177.7602081298828 240.9197540283203 186.4944458007812 235.4332122802734 C 195.4643707275391 229.7987213134766 203.550537109375 223.4037170410156 210.5283355712891 216.4259185791016 C 216.7112426757812 210.2429656982422 222.2908325195312 203.1355438232422 227.1120300292969 195.3010559082031 C 231.7714538574219 187.7295074462891 235.7583770751953 179.4232635498047 238.9621276855469 170.6130523681641 C 242.0872039794922 162.0190124511719 244.4800720214844 152.9127197265625 246.0742034912109 143.5472106933594 C 247.6474914550781 134.3040161132812 248.4452514648438 124.7975463867188 248.4452514648438 115.2918853759766 C 248.4452514648438 105.7862167358398 247.6474914550781 96.27975463867188 246.0742034912109 87.03654479980469 C 244.4800720214844 77.67105102539062 242.0872039794922 68.56475830078125 238.9621276855469 59.97071838378906 C 235.7583770751953 51.16050720214844 231.7714538574219 42.85426330566406 227.1120300292969 35.28271484375 C 222.2908325195312 27.44821166992188 216.7112426757812 20.34080505371094 210.5283355712891 14.1578369140625 C 202.9976196289062 6.62713623046875 194.78125 -0.283660888671875 186.1074066162109 -6.382568359375 C 177.4271240234375 -12.48603820800781 168.3039093017578 -17.76565551757812 158.9911651611328 -22.07478332519531 C 149.5404968261719 -26.44778442382812 139.8989562988281 -29.818359375 130.3343811035156 -32.09295654296875 C 120.5085754394531 -34.42967224121094 110.7371597290039 -35.61445617675781 101.2915344238281 -35.61445617675781 M 101.2915191650391 -35.91444396972656 C 139.86181640625 -35.91444396972656 180.4399108886719 -16.35482788085938 210.7404479980469 13.94570922851562 C 261.4134826660156 64.61880493164062 261.4134826660156 165.9649658203125 210.7404479980469 216.6380462646484 C 182.2554016113281 245.1231079101562 137.7477416992188 261.6434631347656 95.24009704589844 261.6434631347656 C 62.12936401367188 261.6434631347656 30.23614501953125 251.627197265625 8.048126220703125 229.4391784667969 C -42.62496948242188 178.7660827636719 -20.71578979492188 43.9786376953125 29.95729064941406 -6.694442749023438 C 50.329833984375 -27.06698608398438 75.35884094238281 -35.91444396972656 101.2915191650391 -35.91444396972656 Z"/></g><g class="b" transform="translate(61.859 81.338)"><path class="c" d="M25.775-9.106C72.267-55.6,145.148-36.66,191.64,9.831s46.492,139.475,0,185.966S52.165,254.034,5.674,207.542-20.717,37.386,25.775-9.106Z"/><path class="d" d="M 91.22271728515625 -35.61447143554688 C 79.01913452148438 -35.61447143554688 67.4027099609375 -33.46989440917969 56.69606018066406 -29.24031066894531 C 45.33024597167969 -24.75035095214844 34.99826049804688 -17.90469360351562 25.987060546875 -8.893539428710938 C 20.31352233886719 -3.219970703125 14.90478515625 3.743255615234375 9.911178588867188 11.80271911621094 C 5.07794189453125 19.60333251953125 0.6533660888671875 28.39541625976562 -3.239639282226562 37.93467712402344 C -10.93966674804688 56.80264282226562 -16.33639526367188 78.00637817382812 -18.846435546875 99.25357055664062 C -20.11863708496094 110.0227203369141 -20.62640380859375 120.6409530639648 -20.35563659667969 130.8132629394531 C -20.07548522949219 141.3386077880859 -18.9610595703125 151.3449096679688 -17.04328918457031 160.5542297363281 C -15.03732299804688 170.1873321533203 -12.14517211914062 178.9712677001953 -8.447250366210938 186.6620330810547 C -4.554061889648438 194.7589569091797 0.2682952880859375 201.7127685546875 5.885787963867188 207.3302917480469 C 15.68048095703125 217.125 27.83590698242188 224.6401062011719 42.01437377929688 229.6669616699219 C 48.70759582519531 232.0399475097656 55.85752868652344 233.8473815917969 63.26551818847656 235.0390319824219 C 70.48513793945312 236.2003326416016 78.02329254150391 236.7891845703125 85.67060089111328 236.7891845703125 C 105.0012893676758 236.7891845703125 124.9541778564453 233.0458374023438 143.3721313476562 225.9638061523438 C 152.6185607910156 222.4084167480469 161.3693695068359 218.0537567138672 169.3815612792969 213.0208435058594 C 177.6097106933594 207.8522186279297 185.0271301269531 201.9861145019531 191.4278259277344 195.58544921875 C 197.0991821289062 189.9140625 202.2171325683594 183.3946838378906 206.6394805908203 176.2082977294922 C 210.9135284423828 169.2629852294922 214.5707550048828 161.6436767578125 217.509521484375 153.5620727539062 C 220.3762512207031 145.6785736083984 222.5712585449219 137.3252258300781 224.0335998535156 128.7339935302734 C 225.4768371582031 120.2549133300781 226.2086334228516 111.5343017578125 226.2086334228516 102.8144149780273 C 226.2086334228516 94.09456634521484 225.4768371582031 85.37395477294922 224.0335998535156 76.89487457275391 C 222.5712585449219 68.30364990234375 220.3762512207031 59.95025634765625 217.509521484375 52.06680297851562 C 214.5707550048828 43.98515319824219 210.9135284423828 36.3658447265625 206.6394805908203 29.4205322265625 C 202.2171325683594 22.23417663574219 197.0991821289062 15.71476745605469 191.4278259277344 10.04338073730469 C 184.5195159912109 3.135101318359375 176.9822540283203 -3.2044677734375 169.0253601074219 -8.799270629882812 C 161.0625915527344 -14.39823913574219 152.6935272216797 -19.24147033691406 144.1506042480469 -23.19439697265625 C 135.4812927246094 -27.205810546875 126.6369094848633 -30.29774475097656 117.8632125854492 -32.38423156738281 C 108.85009765625 -34.52766418457031 99.88694763183594 -35.61447143554688 91.22271728515625 -35.61447143554688 M 91.22271728515625 -35.91445922851562 C 126.6102066040039 -35.91445922851562 163.8397979736328 -17.96890258789062 191.6399383544922 9.831268310546875 C 238.1315307617188 56.3228759765625 238.1315307617188 149.3059997558594 191.6399383544922 195.7975616455078 C 165.5054779052734 221.9320526123047 124.6705169677734 237.0892028808594 85.67057800292969 237.0892028808594 C 55.29212951660156 237.0892028808594 26.03076171875 227.8994903564453 5.673675537109375 207.5424194335938 C -40.81785583496094 161.0508422851562 -20.71662902832031 37.38587951660156 25.77494812011719 -9.105667114257812 C 44.46635437011719 -27.79708862304688 67.42999267578125 -35.91445922851562 91.22271728515625 -35.91445922851562 Z"/></g><g class="b" transform="translate(78.954 99.786)"><path class="c" d="M19.343-12.814C59.4-52.875,122.2-36.557,162.266,3.5s40.061,120.183,0,160.243S42.083,213.928,2.022,173.867-20.718,27.247,19.343-12.814Z"/><path class="d" d="M 75.73790740966797 -35.61445617675781 C 65.22757720947266 -35.61445617675781 55.22304534912109 -33.76748657226562 46.00221252441406 -30.12489318847656 C 36.21383666992188 -26.258056640625 27.31570434570312 -20.3624267578125 19.55500793457031 -12.60173034667969 C 14.66847229003906 -7.715194702148438 10.00987243652344 -1.717620849609375 5.70867919921875 5.224349975585938 C 1.545181274414062 11.94404602050781 -2.266326904296875 19.51791381835938 -5.6199951171875 27.73558044433594 C -12.25355529785156 43.99031066894531 -16.90286254882812 62.25740814208984 -19.06526184082031 80.56201171875 C -20.1612548828125 89.83960723876953 -20.59869384765625 98.98710632324219 -20.36541748046875 107.7504119873047 C -20.12408447265625 116.8174133300781 -19.16409301757812 125.437141418457 -17.51213073730469 133.3702392578125 C -15.78428649902344 141.6676025390625 -13.29328918457031 149.2333374023438 -10.10829162597656 155.8572692871094 C -6.755630493164062 162.8300170898438 -2.60302734375 168.8181457519531 2.234176635742188 173.6553497314453 C 10.669677734375 182.0908508300781 21.1385498046875 188.5632019042969 33.3499755859375 192.8926391601562 C 39.11504364013672 194.9366149902344 45.27357482910156 196.493408203125 51.65444183349609 197.5198059082031 C 57.87324523925781 198.5201721191406 64.36650848388672 199.0273742675781 70.95384216308594 199.0273742675781 C 87.60567474365234 199.0273742675781 104.7935104370117 195.8027801513672 120.6592102050781 189.7021484375 C 128.6241760253906 186.6394805908203 136.1621704101562 182.8883819580078 143.0638122558594 178.5530395507812 C 150.1512451171875 174.1010131835938 156.5402374267578 169.0482482910156 162.0534057617188 163.5351104736328 C 166.9380035400391 158.6505126953125 171.3460388183594 153.0354156494141 175.1550140380859 146.8458099365234 C 178.8363800048828 140.8635406494141 181.9865112304688 134.3007049560547 184.5178070068359 127.3395385742188 C 186.9871826171875 120.5488433837891 188.8779144287109 113.3533477783203 190.1375732421875 105.9529113769531 C 191.3808135986328 98.64891052246094 192.0111694335938 91.13687896728516 192.0111694335938 83.62547302246094 C 192.0111694335938 76.11407470703125 191.3808135986328 68.60204315185547 190.1375732421875 61.29807281494141 C 188.8779144287109 53.89764404296875 186.9871826171875 46.70211029052734 184.5178070068359 39.91144561767578 C 181.9865112304688 32.95027160644531 178.8363800048828 26.38740539550781 175.1550140380859 20.40518188476562 C 171.3460388183594 14.215576171875 166.9380035400391 8.600479125976562 162.0534057617188 3.71588134765625 C 156.1023712158203 -2.235153198242188 149.6094818115234 -7.696319580078125 142.7551116943359 -12.51588439941406 C 135.8957824707031 -17.3389892578125 128.6864471435547 -21.51106262207031 121.3274383544922 -24.91615295410156 C 113.8597717285156 -28.37155151367188 106.2413787841797 -31.03489685058594 98.68390655517578 -32.8321533203125 C 90.92063903808594 -34.67835998535156 83.20050811767578 -35.61445617675781 75.73790740966797 -35.61445617675781 M 75.7379150390625 -35.91444396972656 C 106.2306213378906 -35.91444396972656 138.3106689453125 -20.45111083984375 162.2655487060547 3.503738403320312 C 202.3263702392578 43.56461334228516 202.3263702392578 123.6863403320312 162.2655487060547 163.7472381591797 C 139.7459564208984 186.2668151855469 104.559326171875 199.327392578125 70.95384979248047 199.327392578125 C 44.77733612060547 199.327392578125 19.56333923339844 191.4087829589844 2.022048950195312 173.8674774169922 C -38.038818359375 133.8066101074219 -20.71798706054688 27.24700927734375 19.34288024902344 -12.81385803222656 C 35.44888305664062 -28.91987609863281 55.23618316650391 -35.91444396972656 75.7379150390625 -35.91444396972656 Z"/></g><g class="b" transform="translate(92.031 114.221)"><path class="c" d="M14.425-15.649C49.569-50.793,104.662-36.478,139.807-1.334s35.144,105.432,0,140.577S34.374,183.265-.77,148.121-20.719,19.5,14.425-15.649Z"/><path class="d" d="M 63.89864349365234 -35.61445617675781 C 54.68290710449219 -35.61445617675781 45.91082000732422 -33.99504089355469 37.82599639892578 -30.80120849609375 C 29.24369812011719 -27.41082763671875 21.44184875488281 -22.24153137207031 14.63719940185547 -15.43692016601562 C 6.192138671875 -6.991836547851562 -1.442031860351562 5.240493774414062 -7.43994140625 19.93760681152344 C -13.25814819335938 34.19434356689453 -17.33598327636719 50.21614074707031 -19.23258972167969 66.27096557617188 C -20.19386291503906 74.40814208984375 -20.57752990722656 82.43116760253906 -20.37294006347656 90.11717224121094 C -20.16127014160156 98.06916809082031 -19.31935119628906 105.6288146972656 -17.87055969238281 112.5861053466797 C -16.35542297363281 119.8621978759766 -14.17109680175781 126.4965515136719 -11.3782958984375 132.3048400878906 C -8.438919067382812 138.4180450439453 -4.798355102539062 143.6678771972656 -0.55780029296875 147.9084625244141 C 6.8385009765625 155.3047180175781 16.01787567138672 160.9798126220703 26.72537994384766 164.7760467529297 C 31.78079223632812 166.5684051513672 37.18125915527344 167.9335784912109 42.77678680419922 168.8336639404297 C 48.23043823242188 169.7109375 53.92478942871094 170.1557312011719 59.70169830322266 170.1557312011719 C 74.30535125732422 170.1557312011719 89.37914276123047 167.3277282714844 103.2934646606445 161.9774322509766 C 110.2786407470703 159.2915191650391 116.8893432617188 156.0018768310547 122.9419631958008 152.1998748779297 C 129.1571960449219 148.2957000732422 134.7599029541016 143.8648071289062 139.5944976806641 139.0302581787109 C 143.8775482177734 134.7471618652344 147.7427673339844 129.823486328125 151.082763671875 124.3959884643555 C 154.3110198974609 119.1500778198242 157.0734100341797 113.3949584960938 159.2931976318359 107.2904891967773 C 161.4587249755859 101.3352813720703 163.1168518066406 95.02507781982422 164.2215270996094 88.53507995605469 C 165.3118133544922 82.12954711914062 165.8646392822266 75.54158020019531 165.8646392822266 68.95410919189453 C 165.8646392822266 62.36666870117188 165.3118133544922 55.77869415283203 164.2215270996094 49.3731689453125 C 163.1168518066406 42.88317108154297 161.4587249755859 36.57295989990234 159.2931976318359 30.61775970458984 C 157.0734100341797 24.51328277587891 154.3110198974609 18.75817108154297 151.082763671875 13.51225280761719 C 147.7427673339844 8.084754943847656 143.8775482177734 3.161087036132812 139.5944976806641 -1.12200927734375 C 134.3753204345703 -6.341156005859375 128.6809387207031 -11.13069152832031 122.6695556640625 -15.3575439453125 C 116.6538467407227 -19.58738708496094 110.3312606811523 -23.24630737304688 103.87744140625 -26.23257446289062 C 97.3284912109375 -29.26286315917969 90.6474609375 -31.5985107421875 84.01990509033203 -33.17462158203125 C 77.21223449707031 -34.79356384277344 70.44246673583984 -35.61445617675781 63.89864349365234 -35.61445617675781 M 63.89865112304688 -35.91444396972656 C 90.64894104003906 -35.91444396972656 118.791748046875 -22.34895324707031 139.8066101074219 -1.334121704101562 C 174.9506683349609 33.80998992919922 174.9506683349609 104.0982513427734 139.8066101074219 139.2423706054688 C 120.0508804321289 158.9980773925781 89.18272399902344 170.4557189941406 59.70171356201172 170.4557189941406 C 36.73789215087891 170.4557189941406 14.61850738525391 163.5089874267578 -0.7699127197265625 148.1205749511719 C -35.9140625 112.976432800293 -20.71903991699219 19.49507904052734 14.42507934570312 -15.64903259277344 C 28.55437469482422 -29.77833557128906 45.91313171386719 -35.91444396972656 63.89865112304688 -35.91444396972656 Z"/></g><g class="b" transform="translate(110.087 134.165)"><path class="c" d="M7.632-19.565c28.353-28.353,72.8-16.8,101.152,11.549s28.353,85.058,0,113.41-85.058,35.515-113.41,7.163S-20.72,8.787,7.632-19.565Z"/><path class="d" d="M 47.54503631591797 -35.61445617675781 C 40.11753845214844 -35.61445617675781 33.04779815673828 -34.30936431884766 26.53218078613281 -31.73541259765625 C 19.61579895019531 -29.003173828125 13.32827758789062 -24.83717346191406 7.844276428222656 -19.3531494140625 C 1.036582946777344 -12.54547882080078 -5.117912292480469 -2.683647155761719 -9.953842163085938 9.166183471679688 C -14.64574432373047 20.66306304931641 -17.93419647216797 33.58346939086914 -19.46367645263672 46.53061294555664 C -21.04524993896484 59.91842269897461 -20.66555786132812 72.83254241943359 -18.36569976806641 83.87685394287109 C -17.14429473876953 89.74225616455078 -15.38360595703125 95.09004211425781 -13.13256072998047 99.77165985107422 C -10.76403045654297 104.6976165771484 -7.830818176269531 108.9275665283203 -4.414344787597656 112.3440170288086 C 1.546463012695312 118.3048248291016 8.944679260253906 122.8786163330078 17.57477569580078 125.9383544921875 C 25.69129943847656 128.8159790039062 34.63558959960938 130.2750701904297 44.15913391113281 130.2750701904297 C 55.93360900878906 130.2750701904297 68.08722686767578 127.9949035644531 79.30606079101562 123.6810607910156 C 84.93787384033203 121.5155410766602 90.26770782470703 118.8633041381836 95.14749145507812 115.7980422973633 C 100.1579666137695 112.6506576538086 104.6745376586914 109.0787582397461 108.5717544555664 105.1815185546875 C 112.0239639282227 101.7293243408203 115.1394195556641 97.76071166992188 117.8315887451172 93.38592529296875 C 120.4339447021484 89.15708923339844 122.660774230957 84.51770782470703 124.4502716064453 79.59658813476562 C 126.1961364746094 74.79549407958984 127.5329437255859 69.70809173583984 128.4235534667969 64.4757080078125 C 129.3026123046875 59.31125640869141 129.7483215332031 53.99966049194336 129.7483215332031 48.68846893310547 C 129.7483215332031 43.37728118896484 129.3026123046875 38.0656852722168 128.4235534667969 32.9012336730957 C 127.5329437255859 27.66883087158203 126.1961364746094 22.5814208984375 124.4502716064453 17.78032684326172 C 122.660774230957 12.85923004150391 120.4339447021484 8.219825744628906 117.8315887451172 3.991020202636719 C 115.1394195556641 -0.3837890625 112.0239639282227 -4.352386474609375 108.5717544555664 -7.804580688476562 C 104.3635406494141 -12.0128173828125 99.77217864990234 -15.87460327148438 94.92520141601562 -19.28269958496094 C 90.07484436035156 -22.69317626953125 84.97713470458984 -25.64324188232422 79.77363586425781 -28.05097961425781 C 74.4937744140625 -30.49405670166016 69.10751342773438 -32.37705230712891 63.76449203491211 -33.64769744873047 C 58.27677536010742 -34.95274353027344 52.81977462768555 -35.61445617675781 47.54503631591797 -35.61445617675781 M 47.54503631591797 -35.91445922851562 C 69.12588500976562 -35.91445922851562 91.83013916015625 -24.97046661376953 108.7838973999023 -8.0167236328125 C 137.136474609375 20.33587646484375 137.136474609375 77.04103851318359 108.7838973999023 105.3936614990234 C 92.845947265625 121.3315887451172 67.9429931640625 130.5750579833984 44.15912246704102 130.5750579833984 C 25.63301849365234 130.5750579833984 7.788154602050781 124.9707794189453 -4.626487731933594 112.5561599731445 C -32.97904968261719 84.20354461669922 -20.720458984375 8.787277221679688 7.632133483886719 -19.56529235839844 C 19.03096771240234 -30.96412658691406 33.03518676757812 -35.91445922851562 47.54503631591797 -35.91445922851562 Z"/></g><g class="b" transform="translate(120.372 145.951)"><path class="c" d="M3.763-21.8C28.248-46.28,66.631-36.307,91.116-11.823s24.485,73.454,0,97.939S17.662,116.786-6.823,92.3-20.721,2.689,3.763-21.8Z"/><path class="d" d="M 38.23120498657227 -35.61444854736328 C 31.82216644287109 -35.61444854736328 25.72196578979492 -34.48836517333984 20.10002899169922 -32.26747131347656 C 14.1324462890625 -29.91002655029297 8.707366943359375 -26.31544494628906 3.975502014160156 -21.58356475830078 C -1.899658203125 -15.70842742919922 -7.211433410644531 -7.196647644042969 -11.38559722900391 3.031608581542969 C -15.43603515625 12.95667266845703 -18.27491760253906 24.11075210571289 -19.59531402587891 35.28799057006836 C -20.96059417724609 46.84505462646484 -20.63291168212891 57.99283218383789 -18.64771270751953 67.52616882324219 C -17.59359741210938 72.58815002441406 -16.07419586181641 77.20323181152344 -14.13167572021484 81.24319458007812 C -12.08827209472656 85.49295043945312 -9.557876586914062 89.14207458496094 -6.610755920410156 92.08917236328125 C -1.467475891113281 97.23245239257812 4.916305541992188 101.1790313720703 12.36326599121094 103.8192749023438 C 19.36810302734375 106.3027725219727 27.08758544921875 107.56201171875 35.30722427368164 107.56201171875 C 45.47042465209961 107.56201171875 55.9609260559082 105.5938568115234 65.64460754394531 101.8703308105469 C 75.52162170410156 98.07244873046875 84.25602722167969 92.55131530761719 90.90352630615234 85.90379333496094 C 93.88250732421875 82.92481231689453 96.57094573974609 79.50012969970703 98.89418792724609 75.72489166259766 C 101.1400604248047 72.07533264160156 103.0619049072266 68.07137298583984 104.6063232421875 63.82421112060547 C 106.113166809082 59.68039321899414 107.2669677734375 55.28943252563477 108.0356674194336 50.77329254150391 C 108.7944030761719 46.31565093994141 109.1791229248047 41.73099517822266 109.1791229248047 37.14665222167969 C 109.1791229248047 32.56233215332031 108.7944030761719 27.9776725769043 108.0356674194336 23.5200309753418 C 107.2669677734375 19.00389099121094 106.113166809082 14.61293411254883 104.6063232421875 10.46911239624023 C 103.0619049072266 6.221954345703125 101.1400604248047 2.217994689941406 98.89418792724609 -1.431564331054688 C 96.57094573974609 -5.206809997558594 93.88250732421875 -8.631484985351562 90.90352630615234 -11.61046600341797 C 87.27106475830078 -15.24292755126953 83.30788421630859 -18.57637023925781 79.12408447265625 -21.51816558837891 C 74.93742370605469 -24.46196746826172 70.53730773925781 -27.00834655761719 66.04588317871094 -29.08658599853516 C 61.48880767822266 -31.19522857666016 56.83994293212891 -32.82044982910156 52.22848510742188 -33.91710662841797 C 47.49252700805664 -35.04338836669922 42.78316497802734 -35.61444854736328 38.23120498657227 -35.61444854736328 M 38.23120498657227 -35.91445159912109 C 56.867919921875 -35.91445159912109 76.47479248046875 -26.46347808837891 91.11566162109375 -11.82260894775391 C 115.6002807617188 12.66203308105469 115.6002807617188 61.63129425048828 91.11566162109375 86.11593627929688 C 77.35202026367188 99.87956237792969 55.84641265869141 107.8620147705078 35.30722045898438 107.8620147705078 C 19.30850219726562 107.8620147705078 3.898101806640625 103.0222930908203 -6.822891235351562 92.30131530761719 C -31.30753326416016 67.816650390625 -20.72129821777344 2.688934326171875 3.76336669921875 -21.79570770263672 C 13.60712432861328 -31.63947296142578 25.70083618164062 -35.91445159912109 38.23120498657227 -35.91445159912109 Z"/></g><g class="b" transform="translate(148.362 176.859)"><path class="c" d="M-6.766-27.866C7.191-41.823,29.07-36.138,43.028-22.181s13.957,41.871,0,55.828S1.156,51.13-12.8,37.173-20.723-13.909-6.766-27.866Z"/><path class="d" d="M 12.88153839111328 -35.61444854736328 C 9.244443893432617 -35.61444854736328 5.783056259155273 -34.97557830810547 2.593503952026367 -33.715576171875 C -0.7917079925537109 -32.37827301025391 -3.869461059570312 -30.33890533447266 -6.554248809814453 -27.65412902832031 C -9.891250610351562 -24.31711959838867 -12.90940093994141 -19.47977638244629 -15.28239059448242 -13.66506004333496 C -17.58695602416992 -8.018024444580078 -19.20221328735352 -1.67142391204834 -19.95355606079102 4.688622951507568 C -20.73020172119141 11.26291751861572 -20.54403686523438 17.60322189331055 -19.41520309448242 23.02411651611328 C -18.81644821166992 25.89939880371094 -17.95370864868164 28.52019882202148 -16.85093307495117 30.81370544433594 C -15.69243621826172 33.22309112548828 -14.25843811035156 35.29133987426758 -12.58879089355469 36.96099853515625 C -9.670612335205078 39.87916564941406 -6.047813415527344 42.11863327026367 -1.821014404296875 43.61721038818359 C 2.158115386962891 45.02797698974609 6.543985366821289 45.74329376220703 11.21475028991699 45.74329376220703 C 16.99248123168945 45.74329376220703 22.9564323425293 44.62434005737305 28.46185684204102 42.50742340087891 C 34.07538604736328 40.34891510009766 39.03878784179688 37.21177673339844 42.81544494628906 33.43511962890625 C 46.17449188232422 30.07605743408203 48.79241943359375 25.8573169708252 50.59650421142578 20.89608192443848 C 52.29671478271484 16.22049331665039 53.19539642333984 10.97718811035156 53.19539642333984 5.732999801635742 C 53.19539642333984 0.4888229370117188 52.29671478271484 -4.754483222961426 50.59650421142578 -9.430070877075195 C 48.79241943359375 -14.39130592346191 46.17449188232422 -18.61004829406738 42.81544494628906 -21.96910667419434 C 38.67951583862305 -26.10502243041992 33.79251480102539 -29.5408935546875 28.6827392578125 -31.90525817871094 C 26.09282112121582 -33.1036491394043 23.45099830627441 -34.02724838256836 20.83064460754395 -34.6504020690918 C 18.14073944091797 -35.29009628295898 15.46627998352051 -35.61444854736328 12.88153839111328 -35.61444854736328 M 12.88153457641602 -35.91444396972656 C 23.50512886047363 -35.91444396972656 34.68174743652344 -30.52705383300781 43.02757263183594 -22.18123626708984 C 56.98468017578125 -8.224117279052734 56.98468017578125 19.69012832641602 43.02757263183594 33.64724731445312 C 35.18180084228516 41.49300765991211 22.92283058166504 46.04329299926758 11.21475410461426 46.04329299926758 C 2.094911575317383 46.04329299926758 -6.689571380615234 43.28447341918945 -12.80091857910156 37.17312622070312 C -26.75802612304688 23.21599960327148 -20.72349548339844 -13.90914154052734 -6.766380310058594 -27.86626052856445 C -1.155075073242188 -33.47755432128906 5.738773345947266 -35.91444396972656 12.88153457641602 -35.91444396972656 Z"/></g></g></g></svg>