<svg xmlns="http://www.w3.org/2000/svg" width="407.076" height="449.504" viewBox="0 0 407.076 449.504"><defs><style>.a{fill:none;}.b,.c{stroke:none;}.c{fill:#4aa561;}</style></defs><g transform="translate(-13.274 -4187.085)"><g class="a" transform="translate(34 4223)"><path class="b" d="M55.839,8.227c76.549-76.549,196.55-45.369,273.1,31.18s76.549,229.647,0,306.2S99.291,441.49,22.742,364.941-20.71,84.776,55.839,8.227Z"/><path class="c" d="M 163.5992889404297 -34.91448974609375 C 143.5698394775391 -34.91448974609375 124.5057830810547 -31.39535522460938 106.9365997314453 -24.45477294921875 C 97.79121398925781 -20.84197998046875 88.96408081054688 -16.25408935546875 80.70028686523438 -10.8184814453125 C 72.164794921875 -5.2042236328125 64.03802490234375 1.44134521484375 56.5457763671875 8.93365478515625 C 47.23165893554688 18.24771118164062 38.35052490234375 29.68209838867188 30.14895629882812 42.91903686523438 C 22.20578002929688 55.73895263671875 14.93353271484375 70.18991088867188 8.534332275390625 85.87039184570312 C -4.12689208984375 116.8951416015625 -13.0009765625 151.7617797851562 -17.12847900390625 186.7008972167969 C -19.2203369140625 204.4084014892578 -20.05526733398438 221.8669586181641 -19.610107421875 238.5915832519531 C -19.14959716796875 255.8915863037109 -17.31814575195312 272.3369140625 -14.16671752929688 287.4707641601562 C -10.87216186523438 303.2916564941406 -6.12347412109375 317.7154541015625 -0.052520751953125 330.3414611816406 C 6.332916259765625 343.6216430664062 14.23989868164062 355.0245971679688 23.4488525390625 364.2334594726562 C 31.58502197265625 372.3697204589844 40.83822631835938 379.6357116699219 50.95135498046875 385.8297729492188 C 60.70028686523438 391.80078125 71.39764404296875 396.8684692382812 82.746337890625 400.8920288085938 C 93.73809814453125 404.7890930175781 105.4806518554688 407.7573852539062 117.6479644775391 409.714599609375 C 129.5085906982422 411.6224670410156 141.8932800292969 412.58984375 154.4578399658203 412.58984375 C 186.2246551513672 412.58984375 219.0145263671875 406.4380187988281 249.2825927734375 394.7994079589844 C 264.4764709472656 388.9570922851562 278.8553466796875 381.8018493652344 292.0198974609375 373.532470703125 C 305.5355834960938 365.0423889160156 317.7186584472656 355.4075927734375 328.230712890625 344.8955383300781 C 337.5408325195312 335.58544921875 345.9429626464844 324.88232421875 353.203857421875 313.0834655761719 C 360.22314453125 301.6769714355469 366.2297973632812 289.1627807617188 371.0568542480469 275.8883361816406 C 375.7666015625 262.9365844726562 379.3728332519531 249.2122802734375 381.7755432128906 235.0965881347656 C 384.1470947265625 221.1635894775391 385.349609375 206.8335876464844 385.349609375 192.5045928955078 C 385.349609375 178.1755828857422 384.1470947265625 163.8455810546875 381.7755432128906 149.9125823974609 C 379.3728332519531 135.7969055175781 375.7666015625 122.0725860595703 371.0568542480469 109.120849609375 C 366.2297973632812 95.84640502929688 360.22314453125 83.33221435546875 353.203857421875 71.92572021484375 C 345.9429626464844 60.1268310546875 337.5408325195312 49.4237060546875 328.230712890625 40.1136474609375 C 316.876708984375 28.75958251953125 304.4888916015625 18.3402099609375 291.4115295410156 9.14501953125 C 278.3254089355469 -0.056427001953125 264.5719604492188 -8.015533447265625 250.5333557128906 -14.51141357421875 C 236.2897186279297 -21.1021728515625 221.7594757080078 -26.18191528320312 207.3461608886719 -29.60958862304688 C 192.5442810058594 -33.12966918945312 177.8257141113281 -34.91448974609375 163.5992889404297 -34.91448974609375 M 163.5992889404297 -35.91445922851562 C 221.8653106689453 -35.91445922851562 283.1644592285156 -6.3668212890625 328.9378356933594 39.40652465820312 C 405.4868469238281 115.9555969238281 405.4868469238281 269.0535888671875 328.9378356933594 345.6026611328125 C 285.9070434570312 388.6334228515625 218.6717834472656 413.5898132324219 154.4578399658203 413.5898132324219 C 104.4393005371094 413.5898132324219 56.25997924804688 398.4588012695312 22.74172973632812 364.9405822753906 C -53.80728149414062 288.3916015625 -20.7103271484375 84.77557373046875 55.83865356445312 8.226531982421875 C 86.61431884765625 -22.54913330078125 124.4242248535156 -35.91445922851562 163.5992889404297 -35.91445922851562 Z"/></g><g class="a" transform="translate(46.739 4236.542)"><path class="b" d="M51.046,5.463c71.757-71.757,184.246-42.529,256,29.228s71.757,215.271,0,287.028S91.777,411.6,20.021,339.846-20.711,77.22,51.046,5.463Z"/><path class="c" d="M 152.0602569580078 -34.91445922851562 C 133.2926177978516 -34.91445922851562 115.4297332763672 -31.61709594726562 98.96772766113281 -25.11392211914062 C 90.39891052246094 -21.7288818359375 82.12814331054688 -17.43017578125 74.38525390625 -12.33721923828125 C 66.38766479492188 -7.076690673828125 58.77297973632812 -0.849884033203125 51.75271606445312 6.17041015625 C 43.025146484375 14.89801025390625 34.70291137695312 25.61270141601562 27.017333984375 38.01693725585938 C 19.57321166992188 50.0313720703125 12.75784301757812 63.574462890625 6.76055908203125 78.27011108398438 C -5.105987548828125 107.3475341796875 -13.423095703125 140.0257720947266 -17.29150390625 172.7721252441406 C -19.25210571289062 189.3681182861328 -20.03460693359375 205.730712890625 -19.61740112304688 221.4053039550781 C -19.185791015625 237.6185913085938 -17.46951293945312 253.0307159423828 -14.51602172851562 267.2134704589844 C -11.42880249023438 282.0390014648438 -6.979034423828125 295.5549926757812 -1.290313720703125 307.3860778808594 C 4.69232177734375 319.8285522460938 12.10025024414062 330.5118408203125 20.7276611328125 339.1392517089844 C 28.35101318359375 346.7626647949219 37.02108764648438 353.5707702636719 46.49685668945312 359.3744812011719 C 55.63177490234375 364.9694213867188 65.65554809570312 369.7179565429688 76.2896728515625 373.4881896972656 C 86.58973693847656 377.1399536132812 97.59355163574219 379.9215393066406 108.9953765869141 381.7555847167969 C 120.1102600097656 383.5435485839844 131.7162628173828 384.4500732421875 143.490966796875 384.4500732421875 C 173.2614898681641 384.4500732421875 203.9909057617188 378.6847839355469 232.3570861816406 367.7775268554688 C 246.5960235595703 362.3024291992188 260.0711364746094 355.5969543457031 272.4080810546875 347.8473510742188 C 285.07373046875 339.8912963867188 296.4904479980469 330.862548828125 306.3410949707031 321.0119018554688 C 315.0649108886719 312.2880554199219 322.9380187988281 302.2588195800781 329.7417907714844 291.2027587890625 C 336.3194885253906 280.5139465332031 341.9482116699219 268.7870178222656 346.4716796875 256.3475341796875 C 350.88525390625 244.2101287841797 354.2648010253906 231.3486633300781 356.5164489746094 218.1203002929688 C 358.7389526367188 205.0630035400391 359.8658447265625 191.6336517333984 359.8658447265625 178.2051239013672 C 359.8658447265625 164.7766571044922 358.7389526367188 151.3473052978516 356.5164489746094 138.2900085449219 C 354.2648010253906 125.0616607666016 350.88525390625 112.2001800537109 346.4716796875 100.0627746582031 C 341.9482116699219 87.623291015625 336.3194885253906 75.8963623046875 329.7417907714844 65.20755004882812 C 322.9380187988281 54.1514892578125 315.0649108886719 44.12225341796875 306.3410949707031 35.39840698242188 C 295.7003784179688 24.75772094726562 284.0909118652344 14.99295043945312 271.8351440429688 6.37542724609375 C 259.5712585449219 -2.247802734375 246.6821441650391 -9.706817626953125 233.5257873535156 -15.79446411132812 C 220.1776733398438 -21.97088623046875 206.5609741210938 -26.73123168945312 193.0540313720703 -29.943359375 C 179.1835021972656 -33.241943359375 165.3912048339844 -34.91445922851562 152.0602569580078 -34.91445922851562 M 152.0602722167969 -35.9144287109375 C 206.6787261962891 -35.9144287109375 264.1403503417969 -8.216583251953125 307.0482177734375 34.69131469726562 C 378.8050842285156 106.4482421875 378.8050842285156 249.9620666503906 307.0482177734375 321.718994140625 C 266.7112426757812 362.0559692382812 203.6849822998047 385.4500732421875 143.4909515380859 385.4500732421875 C 96.60365295410156 385.4500732421875 51.44046020507812 371.2662963867188 20.02056884765625 339.8463745117188 C -51.73638916015625 268.0894165039062 -20.71133422851562 77.22018432617188 51.04562377929688 5.463287353515625 C 79.8946533203125 -23.3857421875 115.3376312255859 -35.9144287109375 152.0602722167969 -35.9144287109375 Z"/></g><g class="a" transform="translate(60.101 4251.296)"><path class="b" d="M46.02,2.566C112.752-64.166,217.363-36.985,284.1,29.747s66.732,200.2,0,266.928S83.9,380.265,17.167,313.533-20.712,69.3,46.02,2.566Z"/><path class="c" d="M 139.9604949951172 -34.91439819335938 C 122.5159301757812 -34.91439819335938 105.9125518798828 -31.84957885742188 90.61160278320312 -25.80511474609375 C 74.37054443359375 -19.38925170898438 59.60549926757812 -9.60595703125 46.72671508789062 3.2728271484375 C 38.61410522460938 11.38543701171875 30.8780517578125 21.3455810546875 23.73348999023438 32.8765869140625 C 16.81271362304688 44.04638671875 10.47637939453125 56.63760375976562 4.900543212890625 70.300537109375 C -6.132659912109375 97.33598327636719 -13.86566162109375 127.7195892333984 -17.46249389648438 158.1666564941406 C -19.285400390625 173.5971527099609 -20.012939453125 188.8104858398438 -19.62506103515625 203.3840942382812 C -19.22378540039062 218.4578704833984 -17.628173828125 232.7864837646484 -14.88238525390625 245.9720458984375 C -12.01251220703125 259.7538146972656 -7.87615966796875 272.3179321289062 -2.588287353515625 283.3153686523438 C 2.97198486328125 294.8793640136719 9.856597900390625 304.80810546875 17.874267578125 312.8257751464844 C 24.95986938476562 319.9114379882812 33.0184326171875 326.2393188476562 41.82598876953125 331.6337585449219 C 50.31710815429688 336.8343811035156 59.63449096679688 341.2482604980469 69.51933288574219 344.7528076171875 C 79.09416198730469 348.1474914550781 89.32327270507812 350.7332763671875 99.9224853515625 352.4382019042969 C 110.2553863525391 354.1003112792969 121.0448760986328 354.9430847167969 131.9913330078125 354.9430847167969 C 159.6686096191406 354.9430847167969 188.2374267578125 349.5831604003906 214.6092681884766 339.4427490234375 C 227.8468780517578 334.3526916503906 240.374267578125 328.1188049316406 251.8434906005859 320.914306640625 C 263.6177062988281 313.5182189941406 274.2308349609375 305.1249694824219 283.3880004882812 295.9678039550781 C 291.4970397949219 287.8587646484375 298.8154296875 278.5361328125 305.1398315429688 268.2589111328125 C 311.2544250488281 258.3226928710938 316.4869384765625 247.4212036132812 320.6919860839844 235.8573150634766 C 324.7951049804688 224.5738220214844 327.9368896484375 212.6170349121094 330.0301513671875 200.3192138671875 C 332.0963745117188 188.1801452636719 333.1439819335938 175.6951446533203 333.1439819335938 163.2109222412109 C 333.1439819335938 150.7267608642578 332.0963745117188 138.2417602539062 330.0301513671875 126.1027069091797 C 327.9368896484375 113.8048706054688 324.7951049804688 101.8480987548828 320.6919860839844 90.56459045410156 C 316.4869384765625 79.00070190429688 311.2544250488281 68.09921264648438 305.1398315429688 58.16299438476562 C 298.8154296875 47.88577270507812 291.4970397949219 38.56314086914062 283.3880004882812 30.4541015625 C 273.4952697753906 20.56137084960938 262.7018737792969 11.4830322265625 251.3076019287109 3.47125244140625 C 239.9059448242188 -4.545684814453125 227.9230499267578 -11.480224609375 215.6917724609375 -17.13986206054688 C 203.2825927734375 -22.88174438476562 190.6239318847656 -27.3072509765625 178.0673828125 -30.29336547851562 C 165.1734924316406 -33.359619140625 152.3524932861328 -34.91439819335938 139.9604949951172 -34.91439819335938 M 139.9605102539062 -35.9144287109375 C 190.7541809082031 -35.9144287109375 244.1919403076172 -10.15618896484375 284.0950927734375 29.74697875976562 C 350.8269958496094 96.47898864746094 350.8269958496094 229.9429321289062 284.0950927734375 296.6749267578125 C 246.5827941894531 334.1872253417969 187.9701385498047 355.943115234375 131.9913177490234 355.943115234375 C 88.38742065429688 355.943115234375 46.3868408203125 342.7525634765625 17.16714477539062 313.5328674316406 C -49.56484985351562 246.8009338378906 -20.71240234375 69.29769897460938 46.01960754394531 2.565704345703125 C 72.84843444824219 -24.26312255859375 105.8094482421875 -35.9144287109375 139.9605102539062 -35.9144287109375 Z"/></g><g class="a" transform="translate(71.078 4263.417)"><path class="b" d="M41.89.185c62.6-62.6,160.743-37.1,223.346,25.5s62.6,187.81,0,250.413S77.426,354.516,14.823,291.913-20.713,62.788,41.89.185Z"/><path class="c" d="M 130.0189971923828 -34.91445922851562 C 113.6615295410156 -34.91445922851562 98.09304809570312 -32.04071044921875 83.74600219726562 -26.373046875 C 68.51762390136719 -20.35720825195312 54.67320251464844 -11.18386840820312 42.59721374511719 0.892120361328125 C 34.98983764648438 8.499420166015625 27.73541259765625 17.83963012695312 21.03536987304688 28.65316772460938 C 14.54461669921875 39.12895202636719 8.601898193359375 50.9381103515625 3.372314453125 63.75253295898438 C -6.976226806640625 89.11021423339844 -14.2293701171875 117.6084289550781 -17.60299682617188 146.1663208007812 C -19.312744140625 160.6391754150391 -19.99514770507812 174.9083251953125 -19.63131713867188 188.5773315429688 C -19.2550048828125 202.7147979736328 -17.75851440429688 216.1532745361328 -15.18338012695312 228.5194396972656 C -12.4920654296875 241.4436340332031 -8.613250732421875 253.2256469726562 -3.654693603515625 263.5381774902344 C 1.55853271484375 274.3804321289062 8.013153076171875 283.689208984375 15.52984619140625 291.2059020996094 C 28.65568542480469 304.3317565917969 44.94879150390625 314.4041137695312 63.95657348632812 321.1431274414062 C 72.93547058105469 324.3265380859375 82.52804565429688 326.7513732910156 92.46783447265625 328.3502807617188 C 102.158203125 329.9089965820312 112.2768859863281 330.6993713378906 122.5427856445312 330.6993713378906 C 148.5002136230469 330.6993713378906 175.2938385009766 325.6724853515625 200.0270538330078 316.162109375 C 212.4419555664062 311.3883666992188 224.1907348632812 305.5420227050781 234.9469909667969 298.7853393554688 C 245.9888916015625 291.8492736816406 255.9417419433594 283.9782104492188 264.529052734375 275.3908996582031 C 272.1329956054688 267.7869567871094 278.9955749511719 259.0449523925781 284.9262084960938 249.4076995849609 C 290.6603088378906 240.0897521972656 295.5672607421875 229.8665466308594 299.5107421875 219.0220031738281 C 303.3586730957031 208.4400634765625 306.3051452636719 197.2266845703125 308.268310546875 185.6933898925781 C 310.2061157226562 174.3087463378906 311.1886291503906 162.5996398925781 311.1886291503906 150.8913269042969 C 311.1886291503906 139.1829528808594 310.2061157226562 127.4738464355469 308.268310546875 116.0892791748047 C 306.3051452636719 104.5559539794922 303.3586730957031 93.34259033203125 299.5107421875 82.76063537597656 C 295.5672607421875 71.91612243652344 290.6603088378906 61.69290161132812 284.9262084960938 52.37495422363281 C 278.9955749511719 42.73770141601562 272.1329956054688 33.99563598632812 264.529052734375 26.39169311523438 C 255.2508850097656 17.113525390625 245.1279907226562 8.59918212890625 234.4415740966797 1.085113525390625 C 223.7483673095703 -6.4337158203125 212.5101013183594 -12.93740844726562 201.0388946533203 -18.24530029296875 C 189.4012145996094 -23.6302490234375 177.5296325683594 -27.78057861328125 165.7539367675781 -30.5809326171875 C 153.6624755859375 -33.45645141601562 141.6394653320312 -34.91445922851562 130.0189971923828 -34.91445922851562 M 130.0189971923828 -35.9144287109375 C 177.6701354980469 -35.9144287109375 227.8017578125 -11.74981689453125 265.2361450195312 25.68460083007812 C 327.8394775390625 88.2879638671875 327.8394775390625 213.4946899414062 265.2361450195312 276.0980224609375 C 230.044677734375 311.2894897460938 175.0582733154297 331.6993713378906 122.5428009033203 331.6993713378906 C 81.63661193847656 331.6993713378906 42.23460388183594 319.3249206542969 14.82272338867188 291.9130249023438 C -47.7806396484375 229.3096466064453 -20.7132568359375 62.788330078125 41.89010620117188 0.18499755859375 C 67.05906677246094 -24.98394775390625 97.98081970214844 -35.9144287109375 130.0189971923828 -35.9144287109375 Z"/></g><g class="a" transform="translate(84.817 4279.118)"><path class="b" d="M36.723-2.794C94.16-60.231,184.2-36.836,241.639,20.6s57.437,172.312,0,229.749S69.327,322.3,11.889,264.861-20.714,54.643,36.723-2.794Z"/><path class="c" d="M 117.5795745849609 -34.91445922851562 C 102.5823211669922 -34.91445922851562 88.30873107910156 -32.27981567382812 75.15533447265625 -27.08364868164062 C 61.19418334960938 -21.56842041015625 48.50157165527344 -13.15826416015625 37.43013000488281 -2.0867919921875 C 30.45503234863281 4.8883056640625 23.80317687988281 13.45274353027344 17.65937805175781 23.36854553222656 C 11.70663452148438 32.97599792480469 6.256378173828125 43.80648803710938 1.4600830078125 55.55924987792969 C -8.031707763671875 78.81764221191406 -14.68441772460938 104.956787109375 -17.77880859375 131.1507873535156 C -19.34698486328125 144.4254913330078 -19.97293090820312 157.5131530761719 -19.63922119140625 170.0502319335938 C -19.2940673828125 183.0161895751953 -17.921630859375 195.3407897949219 -15.56002807617188 206.6817474365234 C -13.09213256835938 218.5328979492188 -9.53558349609375 229.3362884521484 -4.98907470703125 238.7918395996094 C -0.2100677490234375 248.7309875488281 5.706527709960938 257.2640075683594 12.59632873535156 264.1538391113281 C 24.63027954101562 276.1878051757812 39.56852722167969 285.4224548339844 56.99612426757812 291.6012573242188 C 65.22943115234375 294.5202331542969 74.02557373046875 296.7437438964844 83.14022827148438 298.2098999023438 C 92.02662658691406 299.6393432617188 101.3059234619141 300.3641357421875 110.7203216552734 300.3641357421875 C 134.5257263183594 300.3641357421875 159.0981292724609 295.7539367675781 181.7810363769531 287.031982421875 C 193.1664733886719 282.6540832519531 203.94091796875 277.2925415039062 213.8050842285156 271.0962829589844 C 223.9305725097656 264.73583984375 233.0572814941406 257.5182495117188 240.9316253662109 249.6438903808594 C 247.9035339355469 242.6719360351562 254.1958312988281 234.6563873291016 259.6336669921875 225.8198394775391 C 264.8917236328125 217.2755889892578 269.3912658691406 207.9010467529297 273.0074157714844 197.9566040039062 C 276.5361633300781 188.2525329589844 279.2382202148438 177.9692993164062 281.0385131835938 167.3925933837891 C 282.815673828125 156.9519958496094 283.7167358398438 146.2137908935547 283.7167358398438 135.4762420654297 C 283.7167358398438 124.7386932373047 282.815673828125 114.0004425048828 281.0385131835938 103.5598449707031 C 279.2382202148438 92.98313903808594 276.5361633300781 82.69993591308594 273.0074157714844 72.995849609375 C 269.3912658691406 63.05143737792969 264.8917236328125 53.67689514160156 259.6336669921875 45.13259887695312 C 254.1958312988281 36.29609680175781 247.9035339355469 28.28054809570312 240.9316253662109 21.30859375 C 232.4224243164062 12.79939270019531 223.1385192871094 4.990692138671875 213.3378295898438 -1.900543212890625 C 203.5310363769531 -8.796112060546875 193.2244262695312 -14.7606201171875 182.7043304443359 -19.62844848632812 C 172.0319213867188 -24.56671142578125 161.1452331542969 -28.37277221679688 150.3465881347656 -30.9407958984375 C 139.2591247558594 -33.5775146484375 128.2347259521484 -34.91445922851562 117.5795745849609 -34.91445922851562 M 117.5795593261719 -35.91445922851562 C 161.2985534667969 -35.91445922851562 207.2933807373047 -13.74386596679688 241.6387329101562 20.60148620605469 C 299.0760803222656 78.03884887695312 299.0760803222656 192.9135894775391 241.6387329101562 250.3509979248047 C 209.3512268066406 282.6384582519531 158.9022521972656 301.3641357421875 110.7203216552734 301.3641357421875 C 73.18968200683594 301.3641357421875 37.03910827636719 290.0108032226562 11.88922119140625 264.8609313964844 C -45.54812622070312 207.4235382080078 -20.71438598632812 54.64344787597656 36.7230224609375 -2.793914794921875 C 59.8150634765625 -25.88595581054688 88.18515014648438 -35.91445922851562 117.5795593261719 -35.91445922851562 Z"/></g><g class="a" transform="translate(105.937 4301.909)"><path class="b" d="M28.777-7.375C78.269-56.868,155.856-36.708,205.348,12.784s49.493,148.478,0,197.971-148.478,62-197.971,12.5S-20.716,42.118,28.777-7.375Z"/><path class="c" d="M 98.44910430908203 -34.91445922851562 C 85.54376983642578 -34.91445922851562 73.2615966796875 -32.6474609375 61.94381713867188 -28.17646789550781 C 49.93147277832031 -23.43109130859375 39.01034545898438 -16.19462585449219 29.4837646484375 -6.668014526367188 C 23.48097229003906 -0.66522216796875 17.755859375 6.706161499023438 12.46743774414062 15.24140930175781 C 7.342147827148438 23.51341247558594 2.649307250976562 32.83891296386719 -1.480682373046875 42.95890808105469 C -9.654937744140625 62.98883056640625 -15.38423156738281 85.49995422363281 -18.04914855957031 108.0586166381836 C -19.39964294433594 119.4905319213867 -19.93869018554688 130.7611999511719 -19.65132141113281 141.5575866699219 C -19.35414123535156 152.7218627929688 -18.17251586914062 163.33349609375 -16.13923645019531 173.09765625 C -14.01498413085938 183.2986145019531 -10.9539794921875 192.5970306396484 -7.041229248046875 200.7345733642578 C -2.930023193359375 209.2848663330078 2.1591796875 216.6248626708984 8.084976196289062 222.5506134033203 C 18.43972778320312 232.9054107666016 31.29435729980469 240.8517456054688 46.29180908203125 246.1689453125 C 53.37843322753906 248.6814575195312 60.94972229003906 250.5952758789062 68.79539489746094 251.8573303222656 C 76.44538879394531 253.0878601074219 84.43376159667969 253.7118225097656 92.53864288330078 253.7118225097656 C 113.0344772338867 253.7118225097656 134.1908569335938 249.7424926757812 153.7206115722656 242.2329864501953 C 163.5228881835938 238.4638214111328 172.7989807128906 233.8479156494141 181.2911834716797 228.5134887695312 C 190.0073547363281 223.038330078125 197.8634796142578 216.8255310058594 204.6413116455078 210.0476531982422 C 210.6412658691406 204.0477447509766 216.0564727783203 197.1494140625 220.7365570068359 189.5443267822266 C 225.2623901367188 182.1898193359375 229.1354827880859 174.1204528808594 232.2482299804688 165.5603332519531 C 235.2860565185547 157.2063293457031 237.6122283935547 148.3535766601562 239.162109375 139.2479858398438 C 240.692138671875 130.2592010498047 241.4678955078125 121.0140762329102 241.4678955078125 111.7694931030273 C 241.4678955078125 102.5249099731445 240.692138671875 93.27982330322266 239.162109375 84.29103088378906 C 237.6122283935547 75.18545532226562 235.2860565185547 66.33270263671875 232.2482299804688 57.97865295410156 C 229.1354827880859 49.41853332519531 225.2623901367188 41.34915161132812 220.7365570068359 33.99470520019531 C 216.0564727783203 26.38961791992188 210.6412658691406 19.49128723144531 204.6413116455078 13.4913330078125 C 197.3147277832031 6.164749145507812 189.3211364746094 -0.5587158203125 180.882568359375 -6.492172241210938 C 172.4389801025391 -12.42921447753906 163.5652313232422 -17.56454467773438 154.5077209472656 -21.75558471679688 C 145.3198852539062 -26.00692749023438 135.9478149414062 -29.28346252441406 126.6518096923828 -31.49417114257812 C 117.1084365844727 -33.76371765136719 107.6196823120117 -34.91445922851562 98.44910430908203 -34.91445922851562 M 98.44910430908203 -35.91444396972656 C 136.1208801269531 -35.91444396972656 175.7537231445312 -16.81048583984375 205.3484344482422 12.78419494628906 C 254.841064453125 62.27687072753906 254.841064453125 161.2621612548828 205.3484344482422 210.7547912597656 C 177.5269317626953 238.5762786865234 134.0560607910156 254.7118225097656 92.53864288330078 254.7118225097656 C 60.19923400878906 254.7118225097656 29.04899597167969 244.9288940429688 7.377853393554688 223.2577362060547 C -42.11480712890625 173.7650756835938 -20.71601867675781 42.11749267578125 28.77664184570312 -7.375137329101562 C 48.67459106445312 -27.27308654785156 73.12052917480469 -35.91444396972656 98.44910430908203 -35.91444396972656 Z"/></g><g class="a" transform="translate(122.092 4319.743)"><path class="b" d="M22.7-10.878C66.119-54.3,134.184-36.611,177.6,6.807s43.418,130.255,0,173.673S47.347,234.867,3.929,191.449-20.717,32.54,22.7-10.878Z"/><path class="c" d="M 83.82246398925781 -34.91444396972656 C 72.51650238037109 -34.91444396972656 61.75692749023438 -32.9285888671875 51.84262084960938 -29.01202392578125 C 41.3203125 -24.85528564453125 31.75358581542969 -18.51612854003906 23.40815734863281 -10.17071533203125 C 18.14877319335938 -4.911331176757812 13.1322021484375 1.54791259765625 8.497817993164062 9.027557373046875 C 4.005157470703125 16.27851867675781 -0.1085662841796875 24.453369140625 -3.729110717773438 33.32498168945312 C -10.89599609375 50.88652038574219 -15.91926574707031 70.62375640869141 -18.25584411621094 90.40290832519531 C -19.43991088867188 100.4259414672852 -19.91253662109375 110.3074035644531 -19.66056823730469 119.7728271484375 C -19.40007019042969 129.5596008300781 -18.36430358886719 138.8615264892578 -16.58207702636719 147.4202117919922 C -14.72056579589844 156.3594512939453 -12.0384521484375 164.5071716308594 -8.6102294921875 171.6370239257812 C -5.009613037109375 179.1254119873047 -0.55303955078125 185.5532531738281 4.635665893554688 190.741943359375 C 13.70654296875 199.8128356933594 24.96807861328125 206.774169921875 38.1075439453125 211.4326324462891 C 44.3173828125 213.6342926025391 50.95223999023438 215.3114013671875 57.82769775390625 216.4173736572266 C 64.5323486328125 217.4958648681641 71.53373718261719 218.0427093505859 78.63739013671875 218.0427093505859 C 96.60281372070312 218.0427093505859 115.1474304199219 214.5634155273438 132.266357421875 207.9808654785156 C 140.8582000732422 204.6771697998047 148.9886627197266 200.6313629150391 156.431884765625 195.9558258056641 C 164.0705413818359 191.1575164794922 170.9552307128906 185.7130279541016 176.8947296142578 179.7735290527344 C 182.1515502929688 174.5167083740234 186.8961639404297 168.4725952148438 190.9968109130859 161.8090209960938 C 194.9628448486328 155.3642120361328 198.3569641113281 148.2927551269531 201.0848541259766 140.791015625 C 203.747314453125 133.4692077636719 205.7860870361328 125.7101745605469 207.1445465087891 117.7293701171875 C 208.4855804443359 109.8505630493164 209.1655883789062 101.7470626831055 209.1655883789062 93.64398193359375 C 209.1655883789062 85.54090881347656 208.4855804443359 77.43740844726562 207.1445465087891 69.55860137939453 C 205.7860870361328 61.57778930664062 203.747314453125 53.81875610351562 201.0848541259766 46.4969482421875 C 198.3569641113281 38.99520874023438 194.9628448486328 31.92375183105469 190.9968109130859 25.47894287109375 C 186.8961639404297 18.81536865234375 182.1515502929688 12.77125549316406 176.8947296142578 7.514450073242188 C 170.4723510742188 1.092025756835938 163.4652404785156 -4.8016357421875 156.068115234375 -10.00282287597656 C 148.6668548583984 -15.20698547363281 140.8885803222656 -19.70832824707031 132.9493865966797 -23.38194274902344 C 124.8966217041016 -27.10804748535156 116.6825408935547 -29.97978210449219 108.5353927612305 -31.91725158691406 C 100.1725845336914 -33.90605163574219 91.85796356201172 -34.91444396972656 83.82246398925781 -34.91444396972656 M 83.82247161865234 -35.91444396972656 C 116.8707275390625 -35.91444396972656 151.6393585205078 -19.15513610839844 177.6018524169922 6.807327270507812 C 221.0201568603516 50.22567749023438 221.0201568603516 137.0622863769531 177.6018524169922 180.4806365966797 C 153.1949310302734 204.8875122070312 115.0592880249023 219.0427093505859 78.63738250732422 219.0427093505859 C 50.26704406738281 219.0427093505859 22.93995666503906 210.4604644775391 3.928543090820312 191.4490661621094 C -39.48976135253906 148.0307159423828 -20.71730041503906 32.54048156738281 22.7010498046875 -10.87782287597656 C 40.15687561035156 -28.33366394042969 61.60251617431641 -35.91444396972656 83.82247161865234 -35.91444396972656 Z"/></g><g class="a" transform="translate(144.4 4344.382)"><path class="b" d="M14.309-15.716c35.028-35.028,89.939-20.76,124.967,14.268s35.028,105.083,0,140.111S34.192,182.539-.836,147.512-20.719,19.312,14.309-15.716Z"/><path class="c" d="M 63.61859130859375 -34.9144287109375 C 54.52188873291016 -34.9144287109375 45.86547088623047 -33.31687927246094 37.8897705078125 -30.16616821289062 C 29.42562103271484 -26.82246398925781 21.72970581054688 -21.72286987304688 15.01585388183594 -15.00898742675781 C 6.664093017578125 -6.657257080078125 -0.891754150390625 5.45477294921875 -6.834884643554688 20.01762390136719 C -12.61032104492188 34.16953277587891 -16.65835571289062 50.07514953613281 -18.5413818359375 66.01500701904297 C -20.48741149902344 82.48818206787109 -20.02140808105469 98.37286376953125 -17.19375610351562 111.9517364501953 C -15.69517517089844 119.1481781005859 -13.53643798828125 125.7064208984375 -10.77749633789062 131.4443511962891 C -7.88214111328125 137.4659729003906 -4.299407958984375 142.6338348388672 -0.12884521484375 146.8043823242188 C 7.168594360351562 154.1018371582031 16.22962188720703 159.7026214599609 26.80255889892578 163.4511566162109 C 31.80141448974609 165.2234497070312 37.14267730712891 166.5735321044922 42.67797088623047 167.4639129638672 C 48.07685852050781 168.3323669433594 53.71491241455078 168.772705078125 59.43553161621094 168.772705078125 C 73.90570831298828 168.772705078125 88.84262084960938 165.97021484375 102.6314392089844 160.6681823730469 C 109.5513000488281 158.0073852539062 116.0993270874023 154.7490386962891 122.0935897827148 150.9836883544922 C 128.2438507080078 147.1203308105469 133.7867126464844 142.737060546875 138.5681762695312 137.95556640625 C 142.7984771728516 133.7252655029297 146.6168212890625 128.8610687255859 149.9171142578125 123.4980621337891 C 153.1098785400391 118.3097991943359 155.8423614501953 112.6167449951172 158.0386505126953 106.5769805908203 C 160.1826171875 100.6809768676758 161.8244171142578 94.43264770507812 162.9183807373047 88.00556945800781 C 163.9985046386719 81.66000366210938 164.546142578125 75.1334228515625 164.546142578125 68.60706329345703 C 164.546142578125 62.08071136474609 163.9985046386719 55.55409240722656 162.9183807373047 49.20853424072266 C 161.8244171142578 42.78144836425781 160.1826171875 36.53312683105469 158.0386505126953 30.63712310791016 C 155.8423614501953 24.59735870361328 153.1098785400391 18.904296875 149.9171142578125 13.716064453125 C 146.6168212890625 8.353065490722656 142.7984771728516 3.488861083984375 138.5681762695312 -0.7414398193359375 C 133.3947448730469 -5.914901733398438 127.7503280639648 -10.66239929199219 121.7917633056641 -14.85211181640625 C 115.830207824707 -19.04393005371094 109.5651779174805 -22.66961669921875 103.1706848144531 -25.62843322753906 C 96.68573760986328 -28.62910461425781 90.07129669189453 -30.94160461425781 83.51109313964844 -32.50169372558594 C 76.77900695800781 -34.10267639160156 70.08621215820312 -34.9144287109375 63.61859130859375 -34.9144287109375 M 63.61858367919922 -35.91444396972656 C 90.28033447265625 -35.91444396972656 118.3300094604492 -22.39384460449219 139.2752990722656 -1.44854736328125 C 174.3031005859375 33.57923889160156 174.3031005859375 103.6348571777344 139.2752990722656 138.6626892089844 C 119.5849761962891 158.3529968261719 88.8189697265625 169.772705078125 59.43552398681641 169.772705078125 C 36.54770660400391 169.772705078125 14.50151824951172 162.8489837646484 -0.835968017578125 147.5115051269531 C -35.86378479003906 112.4836502075195 -20.71905517578125 19.31171417236328 14.30873870849609 -15.71611022949219 C 28.39127349853516 -29.79862976074219 45.69258117675781 -35.91444396972656 63.61858367919922 -35.91444396972656 Z"/></g><g class="a" transform="translate(157.106 4358.943)"><path class="b" d="M9.529-18.472C39.778-48.721,87.2-36.4,117.447-6.151s30.249,90.748,0,121-90.748,37.891-121,7.642S-20.72,11.778,9.529-18.472Z"/><path class="c" d="M 52.11196899414062 -34.91445922851562 C 44.27349853515625 -34.91445922851562 36.81488800048828 -33.53807067871094 29.94328308105469 -30.823486328125 C 22.65131378173828 -27.94285583496094 16.02088928222656 -23.54920196533203 10.23623657226562 -17.76454162597656 C 3.036575317382812 -10.56488800048828 -3.478164672851562 -0.1207504272460938 -8.603713989257812 12.438720703125 C -13.58666229248047 24.64877319335938 -17.07926177978516 38.37222290039062 -18.70400238037109 52.12545776367188 C -20.38285064697266 66.33687591552734 -19.98108673095703 80.03935241699219 -17.54216766357422 91.75153350830078 C -16.25026702880859 97.95540618896484 -14.38957977294922 103.6084289550781 -12.01181793212891 108.5535888671875 C -9.518135070800781 113.7398529052734 -6.43310546875 118.1901168823242 -2.842399597167969 121.7808227539062 C 3.445045471191406 128.0682373046875 11.25281524658203 132.8941345214844 20.36407470703125 136.1244506835938 C 24.67323303222656 137.6522216796875 29.27775573730469 138.8160705566406 34.04978942871094 139.5836944580078 C 38.70499420166016 140.3325042724609 43.56660461425781 140.7121887207031 48.49957275390625 140.7121887207031 C 60.97912979125977 140.7121887207031 73.86134338378906 138.295166015625 85.75357055664062 133.722412109375 C 91.72120666503906 131.4277496337891 97.36799621582031 128.6179046630859 102.5370483398438 125.3709030151367 C 107.8396301269531 122.0400390625 112.6182632446289 118.2611389160156 116.740234375 114.1391906738281 C 120.3858947753906 110.4935073852539 123.6766815185547 106.3013000488281 126.5211791992188 101.6789855957031 C 129.2735443115234 97.20637512207031 131.6292114257812 92.29835510253906 133.522705078125 87.09121704101562 C 135.3714141845703 82.00724792480469 136.7871246337891 76.61932373046875 137.73046875 71.07711791992188 C 138.6619415283203 65.60476684570312 139.1342315673828 59.97624588012695 139.1342315673828 54.34787750244141 C 139.1342315673828 48.71953582763672 138.6619415283203 43.09100723266602 137.73046875 37.61866760253906 C 136.7871246337891 32.07645416259766 135.3714141845703 26.68853759765625 133.522705078125 21.60456085205078 C 131.6292114257812 16.39743041992188 129.2735443115234 11.48940277099609 126.5211791992188 7.016799926757812 C 123.6766815185547 2.394485473632812 120.3858947753906 -1.7977294921875 116.740234375 -5.443412780761719 C 112.2780990600586 -9.905540466308594 107.409782409668 -14.00030517578125 102.2704925537109 -17.61393737792969 C 97.12889099121094 -21.22920227050781 91.72567749023438 -24.35612487792969 86.21094512939453 -26.90788269042969 C 80.61894226074219 -29.49539184570312 74.91552734375 -31.48941040039062 69.25910186767578 -32.8345947265625 C 63.45576095581055 -34.21470642089844 57.68662643432617 -34.91445922851562 52.11196899414062 -34.91445922851562 M 52.11195755004883 -35.91445922851562 C 75.13642883300781 -35.91445922851562 99.35947418212891 -24.23837280273438 117.4473419189453 -6.150520324707031 C 147.6965179443359 24.09869384765625 147.6965179443359 84.59709167480469 117.4473419189453 114.8462982177734 C 100.4432373046875 131.8503875732422 73.87443542480469 141.7122039794922 48.49956512451172 141.7122039794922 C 28.73417663574219 141.7122039794922 9.695602416992188 135.7330322265625 -3.549507141113281 122.4879302978516 C -33.79871368408203 92.23872375488281 -20.72008514404297 11.77756500244141 9.529129028320312 -18.47164916992188 C 21.69047546386719 -30.63298034667969 36.63148498535156 -35.91445922851562 52.11195755004883 -35.91445922851562 Z"/></g><g class="a" transform="translate(191.686 4397.128)"><path class="b" d="M-3.48-25.971c17.243-17.243,44.274-10.22,61.517,7.023s17.243,51.729,0,68.973-51.729,21.6-68.973,4.356S-20.723-8.728-3.48-25.971Z"/><path class="c" d="M 20.79406929016113 -34.91445159912109 C 16.38017654418945 -34.91445159912109 12.18163681030273 -34.13997268676758 8.315101623535156 -32.61252593994141 C 4.213470458984375 -30.99221801757812 0.4830398559570312 -28.51991271972656 -2.772560119628906 -25.26431274414062 C -6.836513519287109 -21.20035934448242 -10.51763916015625 -15.2957878112793 -13.41796112060547 -8.188941955566406 C -16.24397659301758 -1.264142990112305 -18.22489929199219 6.519979476928711 -19.14656066894531 14.32190322875977 C -20.09819030761719 22.37742614746094 -19.87126922607422 30.14056396484375 -18.49033355712891 36.77208709716797 C -17.76100921630859 40.27441024780273 -16.71160888671875 43.46364212036133 -15.37128448486328 46.25119781494141 C -13.9708366394043 49.16376495361328 -12.2403450012207 51.66098022460938 -10.22785568237305 53.6734733581543 C -6.689407348632812 57.21193695068359 -2.292636871337891 59.92881011962891 2.840316772460938 61.74864196777344 C 7.688560485839844 63.46754837036133 13.03627014160156 64.33910369873047 18.7348690032959 64.33910369873047 C 25.79645347595215 64.33910369873047 33.08642196655273 62.97121047973633 39.81668472290039 60.38331604003906 C 46.67026901245117 57.74799346923828 52.7264404296875 53.92148590087891 57.33046722412109 49.31747436523438 C 59.38494491577148 47.26299285888672 61.23989868164062 44.89974975585938 62.84380722045898 42.29339599609375 C 64.39752960205078 39.76859664916992 65.72759246826172 36.99721145629883 66.79704284667969 34.05625915527344 C 68.87274169921875 28.34804153442383 69.96990203857422 21.94464111328125 69.96990203857422 15.5383186340332 C 69.96990203857422 9.132011413574219 68.87274169921875 2.728610992431641 66.79704284667969 -2.979604721069336 C 65.72759246826172 -5.920574188232422 64.39752960205078 -8.691944122314453 62.84380722045898 -11.21675872802734 C 61.23989868164062 -13.82311248779297 59.38494491577148 -16.18635940551758 57.33046722412109 -18.2408332824707 C 52.27257537841797 -23.29872894287109 46.2974853515625 -27.49989700317383 40.0511474609375 -30.39015960693359 C 36.88946914672852 -31.85311126708984 33.66560745239258 -32.98034286499023 30.46906852722168 -33.74051284790039 C 27.19351577758789 -34.51948165893555 23.93837738037109 -34.91445159912109 20.79406929016113 -34.91445159912109 M 20.79406547546387 -35.91444778442383 C 33.91883850097656 -35.91444778442383 47.72684478759766 -29.2586669921875 58.03757476806641 -18.94794464111328 C 75.28068542480469 -1.704803466796875 75.28068542480469 32.78145599365234 58.03757476806641 50.02458190917969 C 48.34462738037109 59.71752166748047 33.19945526123047 65.339111328125 18.7348747253418 65.339111328125 C 7.467891693115234 65.339111328125 -3.384780883789062 61.93075942993164 -10.93496322631836 54.38058090209961 C -28.17808532714844 37.13744354248047 -20.72280883789062 -8.728282928466797 -3.479667663574219 -25.97142028808594 C 3.452732086181641 -32.9038200378418 11.96964263916016 -35.91444778442383 20.79406547546387 -35.91444778442383 Z"/></g></g></svg>