<svg xmlns="http://www.w3.org/2000/svg" width="163.018" height="180.009" viewBox="0 0 163.018 180.009"><defs><style>.a{opacity:0.339;}.b{fill:none;}.c,.d{stroke:none;}.d{fill:#4aa561;}</style></defs><g class="a"><g transform="translate(0)"><g class="b" transform="translate(20.726 35.914)"><path class="c" d="M9.935-18.238C40.59-48.893,88.646-36.406,119.3-5.751s30.655,91.965,0,122.62-91.965,38.4-122.62,7.744S-20.72,12.417,9.935-18.238Z"/><path class="d" d="M 53.08894348144531 -34.91445922851562 C 45.14365386962891 -34.91445922851562 37.58333587646484 -33.51927185058594 30.61799621582031 -30.76768493652344 C 23.22649383544922 -27.84771728515625 16.50559997558594 -23.39410400390625 10.64205169677734 -17.53055572509766 C 3.344573974609375 -10.23308563232422 -3.258552551269531 0.3526535034179688 -8.453529357910156 13.08222961425781 C -13.50374603271484 25.45712280273438 -17.04352569580078 39.36583709716797 -18.69019317626953 53.30473327636719 C -20.39171600341797 67.70817565917969 -19.98450469970703 81.59593963623047 -17.51255035400391 93.46659851074219 C -16.20310211181641 99.75473022460938 -14.31713104248047 105.4846267700195 -11.90700531005859 110.4971008300781 C -9.37921142578125 115.7542877197266 -6.251922607421875 120.2654724121094 -2.61199951171875 123.9054183959961 C 3.761184692382812 130.2785949707031 11.67539215087891 135.1702880859375 20.91075897216797 138.4445953369141 C 25.2784423828125 139.9931335449219 29.94554901123047 141.1727905273438 34.78236389160156 141.9508361816406 C 39.500732421875 142.7098083496094 44.42826080322266 143.0946502685547 49.4281005859375 143.0946502685547 C 62.07665634155273 143.0946502685547 75.13333892822266 140.6448974609375 87.18657684326172 136.0102081298828 C 93.23504638671875 133.6844635009766 98.95834350585938 130.8365478515625 104.1974716186523 127.5455474853516 C 109.572021484375 124.1694641113281 114.4155502319336 120.3392562866211 118.5934982299805 116.1613082885742 C 122.2887878417969 112.4659957885742 125.6243667602539 108.2167282104492 128.507568359375 103.5315246582031 C 131.2973327636719 98.99815368652344 133.6849670410156 94.02346801757812 135.6041870117188 88.74562835693359 C 137.4779663085938 83.59272766113281 138.9128723144531 78.13175964355469 139.8690032958984 72.51438903808594 C 140.8130798339844 66.96791076660156 141.2917633056641 61.26315307617188 141.2917633056641 55.55854797363281 C 141.2917633056641 49.85394287109375 140.8130798339844 44.14917755126953 139.8690032958984 38.60270690917969 C 138.9128723144531 32.98533630371094 137.4779663085938 27.52436065673828 135.6041870117188 22.37146759033203 C 133.6849670410156 17.0936279296875 131.2973327636719 12.11894226074219 128.507568359375 7.5855712890625 C 125.6243667602539 2.900360107421875 122.2887878417969 -1.348899841308594 118.5934982299805 -5.044212341308594 C 114.0709686279297 -9.566741943359375 109.1367568969727 -13.71689605712891 103.9279174804688 -17.37945556640625 C 98.71670532226562 -21.04366302490234 93.24031066894531 -24.21292114257812 87.65089416503906 -26.79924011230469 C 81.98307800292969 -29.42181396484375 76.20231628417969 -31.44290161132812 70.46915435791016 -32.80632019042969 C 64.58697509765625 -34.20516967773438 58.73941802978516 -34.91445922851562 53.08894348144531 -34.91445922851562 M 53.08893966674805 -35.91444396972656 C 76.42222595214844 -35.91444396972656 100.9701232910156 -24.081787109375 119.3006057739258 -5.751319885253906 C 149.9555053710938 24.90362548828125 149.9555053710938 86.21347045898438 119.3006057739258 116.8684158325195 C 102.0684204101562 134.1005859375 75.14329528808594 144.0946502685547 49.4281005859375 144.0946502685547 C 29.39760589599609 144.0946502685547 10.10364532470703 138.0352630615234 -3.319107055664062 124.6125183105469 C -33.97402191162109 93.95757293701172 -20.71997833251953 12.41725921630859 9.934944152832031 -18.23766326904297 C 22.25940704345703 -30.56211853027344 37.40083312988281 -35.91444396972656 53.08893966674805 -35.91444396972656 Z"/></g><g class="b" transform="translate(25.828 41.337)"><path class="c" d="M8.015-19.344C36.751-48.08,81.8-36.375,110.535-7.64s28.736,86.208,0,114.943-86.208,36-114.943,7.259S-20.72,9.392,8.015-19.344Z"/><path class="d" d="M 48.46796417236328 -34.91445922851562 C 41.02796936035156 -34.91445922851562 33.94869232177734 -33.60810852050781 27.42674255371094 -31.03165435791016 C 20.50596618652344 -28.29765319824219 14.21298980712891 -24.12755584716797 8.722587585449219 -18.63717651367188 C 1.887794494628906 -11.80237579345703 -4.297233581542969 -1.886451721191406 -9.163887023925781 10.03859710693359 C -13.89583587646484 21.63364410400391 -17.21256256103516 34.66602325439453 -18.75548553466797 47.7267951965332 C -20.34970855712891 61.22194671630859 -19.96830749511719 74.23334503173828 -17.65245819091797 85.3543701171875 C -16.42603302001953 91.24387359619141 -14.65975952148438 96.61022186279297 -12.4027099609375 101.3043441772461 C -10.03623199462891 106.2260437011719 -7.108787536621094 110.4490737915039 -3.701736450195312 113.8561477661133 C 2.265838623046875 119.8237228393555 9.676742553710938 124.4042205810547 18.32511901855469 127.4704208374023 C 26.47649383544922 130.3604125976562 35.46343994140625 131.8257751464844 45.03628921508789 131.8257751464844 C 56.88541412353516 131.8257751464844 69.11696624755859 129.5308227539062 80.4085693359375 125.1889953613281 C 91.91651916503906 120.7639923095703 102.0894393920898 114.3349227905273 109.8275375366211 106.5968246459961 C 113.2880630493164 103.1362991333008 116.4117889404297 99.15687561035156 119.1119384765625 94.76911926269531 C 121.7248382568359 90.52317047119141 123.9611663818359 85.86374664306641 125.7587661743164 80.92029571533203 C 127.5139617919922 76.09349822998047 128.8580627441406 70.97804260253906 129.7537384033203 65.71604919433594 C 130.6381225585938 60.52024841308594 131.0865478515625 55.1761474609375 131.0865478515625 49.83217239379883 C 131.0865478515625 44.48819732666016 130.6381225585938 39.14409637451172 129.7537384033203 33.94829559326172 C 128.8580627441406 28.68629455566406 127.5139617919922 23.57084655761719 125.7587661743164 18.74404907226562 C 123.9611663818359 13.80059814453125 121.7248382568359 9.14117431640625 119.1119384765625 4.895225524902344 C 116.4117889404297 0.5074691772460938 113.2880630493164 -3.471954345703125 109.8275375366211 -6.932479858398438 C 105.5906677246094 -11.16932678222656 100.9681396484375 -15.05735015869141 96.08831787109375 -18.48855590820312 C 91.20639038085938 -21.92122650146484 86.07611846923828 -24.89022827148438 80.83998870849609 -27.31307983398438 C 75.53076171875 -29.76972961425781 70.11586761474609 -31.66287994384766 64.74566650390625 -32.93997192382812 C 59.23646545410156 -34.25015258789062 53.75984191894531 -34.91445922851562 48.46796417236328 -34.91445922851562 M 48.46795654296875 -35.91445922851562 C 70.34053802490234 -35.91445922851562 93.35171508789062 -24.82252502441406 110.5346374511719 -7.639579772949219 C 139.2705078125 21.09629821777344 139.2705078125 78.56804656982422 110.5346374511719 107.3039245605469 C 94.38124847412109 123.4573287963867 69.14167022705078 132.8257751464844 45.03628540039062 132.8257751464844 C 26.25973510742188 132.8257751464844 8.173637390136719 127.1457138061523 -4.408836364746094 114.5632476806641 C -33.14470672607422 85.82736968994141 -20.72038269042969 9.391593933105469 8.015487670898438 -19.34427642822266 C 19.56842041015625 -30.89720916748047 33.76195526123047 -35.91445922851562 48.46795654296875 -35.91445922851562 Z"/></g><g class="b" transform="translate(31.179 47.246)"><path class="c" d="M6-20.5C32.726-47.228,74.619-36.343,101.343-9.62s26.724,80.171,0,106.894S21.172,130.749-5.552,104.026-20.721,6.219,6-20.5Z"/><path class="d" d="M 43.62246704101562 -34.91443634033203 C 36.71232986450195 -34.91443634033203 30.13742065429688 -33.70120239257812 24.0804443359375 -31.30843353271484 C 17.65328216552734 -28.76945495605469 11.80899047851562 -24.89661407470703 6.70989990234375 -19.79752349853516 C 0.3602371215820312 -13.44789123535156 -5.386375427246094 -4.234321594238281 -9.908714294433594 6.847091674804688 C -14.30698394775391 17.62442779541016 -17.38983154296875 29.73786163330078 -18.82396697998047 41.87783813476562 C -20.30567169189453 54.42056655883789 -19.95130920410156 66.51302337646484 -17.79917144775391 76.84795379638672 C -16.65978240966797 82.31949615478516 -15.01903533935547 87.30465698242188 -12.9224853515625 91.66495513916016 C -10.72514343261719 96.23486328125 -8.007286071777344 100.1557006835938 -4.844398498535156 103.3185882568359 C 0.6978530883789062 108.8608627319336 7.580986022949219 113.1150665283203 15.61383056640625 115.963020324707 C 23.18685150146484 118.6479797363281 31.53660583496094 120.0093612670898 40.43110275268555 120.0093612670898 C 51.44196701049805 120.0093612670898 62.80826187133789 117.8767242431641 73.30121612548828 113.8419952392578 C 83.99423980712891 109.7303619384766 93.44635009765625 103.7569732666016 100.6356964111328 96.56761169433594 C 103.8500366210938 93.35329437255859 106.7516021728516 89.6568603515625 109.2598114013672 85.58102416992188 C 111.6872634887695 81.63640594482422 113.7649002075195 77.30758666992188 115.4350128173828 72.71475219726562 C 117.0658569335938 68.22990417480469 118.3147430419922 63.47676849365234 119.1469879150391 58.58740997314453 C 119.9687805175781 53.75931549072266 120.3854675292969 48.79340744018555 120.3854675292969 43.82756805419922 C 120.3854675292969 38.86174774169922 119.9687805175781 33.89583969116211 119.1469879150391 29.0677490234375 C 118.3147430419922 24.17838287353516 117.0658569335938 19.42524719238281 115.4350128173828 14.94040679931641 C 113.7649002075195 10.34756469726562 111.6872634887695 6.018745422363281 109.2598114013672 2.074134826660156 C 106.7516021728516 -2.001708984375 103.8500366210938 -5.698135375976562 100.6356964111328 -8.912452697753906 C 96.69837951660156 -12.84980010986328 92.40264892578125 -16.46293640136719 87.86782836914062 -19.65155029296875 C 83.33119201660156 -22.8414306640625 78.56382751464844 -25.60041046142578 73.69815063476562 -27.85182189941406 C 68.76496887207031 -30.13447570800781 63.73369598388672 -31.89354705810547 58.74407958984375 -33.08013916015625 C 53.6259651184082 -34.29729461669922 48.53830718994141 -34.91443634033203 43.62246704101562 -34.91443634033203 M 43.62245941162109 -35.91444396972656 C 63.96335601806641 -35.91444396972656 85.36312866210938 -25.5992431640625 101.3428039550781 -9.61956787109375 C 128.0663452148438 17.10399627685547 128.0663452148438 70.55115509033203 101.3428039550781 97.27472686767578 C 86.32057189941406 112.2969589233398 62.84844589233398 121.0093536376953 40.43109512329102 121.0093536376953 C 22.96941375732422 121.0093536376953 6.149833679199219 115.7270660400391 -5.551513671875 104.0257034301758 C -32.27510833740234 77.30210876464844 -20.72080230712891 6.218955993652344 6.002784729003906 -20.504638671875 C 16.74668884277344 -31.24854278564453 29.94628143310547 -35.91444396972656 43.62245941162109 -35.91444396972656 Z"/></g><g class="b" transform="translate(35.575 52.1)"><path class="c" d="M4.349-21.458c25.07-25.07,64.371-14.859,89.441,10.212s25.07,75.211,0,100.281S18.58,120.438-6.49,95.368-20.721,3.612,4.349-21.458Z"/><path class="d" d="M 39.64127349853516 -34.91443634033203 C 33.16646957397461 -34.91443634033203 27.00598907470703 -33.77771759033203 21.33099365234375 -31.53587341308594 C 15.30940246582031 -29.15708923339844 9.833755493164062 -25.52852630615234 5.056167602539062 -20.75091552734375 C -0.8948593139648438 -14.79989624023438 -6.281272888183594 -6.163398742675781 -10.52072906494141 4.224868774414062 C -14.64479064941406 14.33034515380859 -17.53546905517578 25.68875885009766 -18.88022613525391 37.07219314575195 C -20.26948547363281 48.83236694335938 -19.93735504150391 60.16982269287109 -17.91970825195312 69.85888671875 C -16.85183715820312 74.98699951171875 -15.31420135498047 79.65895080566406 -13.34953308105469 83.74494934082031 C -11.29118347167969 88.02584075927734 -8.745506286621094 91.69841003417969 -5.783248901367188 94.66066741943359 C -0.5904693603515625 99.85346984863281 5.859077453613281 103.8395614624023 13.38618469238281 106.5082397460938 C 20.4840087890625 109.0247116088867 28.31020736694336 110.3006744384766 36.64736175537109 110.3006744384766 C 46.96949005126953 110.3006744384766 57.62490463256836 108.3014068603516 67.46163940429688 104.5189971923828 C 77.48507690429688 100.6648254394531 86.34494781494141 95.06584167480469 93.08342742919922 88.32736206054688 C 96.09548950195312 85.31529998779297 98.81453704833984 81.85138702392578 101.1650314331055 78.03179931640625 C 103.4401245117188 74.33482360839844 105.3873825073242 70.27760314941406 106.9527282714844 65.97284698486328 C 108.4814300537109 61.76895141601562 109.6520767211914 57.31351852416992 110.4322052001953 52.73030090332031 C 111.2025756835938 48.204345703125 111.5931854248047 43.54917144775391 111.5931854248047 38.89403915405273 C 111.5931854248047 34.23891067504883 111.2025756835938 29.58371353149414 110.4322052001953 25.05775833129883 C 109.6520767211914 20.47454071044922 108.4814300537109 16.01910400390625 106.9527282714844 11.81521224975586 C 105.3873825073242 7.510475158691406 103.4401245117188 3.453231811523438 101.1650314331055 -0.243743896484375 C 98.81453704833984 -4.063308715820312 96.09548950195312 -7.527244567871094 93.08342742919922 -10.539306640625 C 89.3922119140625 -14.23052215576172 85.364990234375 -17.61782836914062 81.11363983154297 -20.60710906982422 C 76.86071014404297 -23.59752655029297 72.39151000976562 -26.18393707275391 67.83023071289062 -28.29450225830078 C 63.20599365234375 -30.43421936035156 58.48992538452148 -32.08309173583984 53.81301116943359 -33.19530487060547 C 49.01625061035156 -34.33604431152344 44.24818801879883 -34.91443634033203 39.64127349853516 -34.91443634033203 M 39.64126586914062 -35.91444396972656 C 58.72370147705078 -35.91444396972656 78.79949951171875 -26.23744201660156 93.79053497314453 -11.24641418457031 C 118.8607482910156 13.82382202148438 118.8607482910156 63.96425628662109 93.79053497314453 89.03447723388672 C 79.69770812988281 103.1273040771484 57.67776489257812 111.3006744384766 36.6473503112793 111.3006744384766 C 20.26600646972656 111.3006744384766 4.487037658691406 106.3451843261719 -6.4903564453125 95.36778259277344 C -31.56059265136719 70.29756164550781 -20.72116088867188 3.612213134765625 4.349052429199219 -21.45802307128906 C 14.42826080322266 -31.53722381591797 26.81121444702148 -35.91444396972656 39.64126586914062 -35.91444396972656 Z"/></g><g class="b" transform="translate(41.077 58.387)"><path class="c" d="M2.28-22.651c23-23,59.059-13.632,82.061,9.369s23,69,0,92.006-69,28.812-92.006,5.811S-20.722.35,2.28-22.651Z"/><path class="d" d="M 34.65977478027344 -34.91445159912109 C 28.72967529296875 -34.91445159912109 23.08777618408203 -33.87347412109375 17.89077758789062 -31.82044982910156 C 12.37663269042969 -29.64212799072266 7.362274169921875 -26.31916809082031 2.986953735351562 -21.94384765625 C -2.465301513671875 -16.49159240722656 -7.400985717773438 -8.577171325683594 -11.28648376464844 0.9437713623046875 C -15.06746673583984 10.20856857299805 -17.71768188476562 20.62226867675781 -18.95062255859375 31.05906867980957 C -20.22422027587891 41.84004974365234 -19.91988372802734 52.2327880859375 -18.07052612304688 61.11370849609375 C -17.09214019775391 65.81211090087891 -15.68356323242188 70.09217071533203 -13.88392639160156 73.83499145507812 C -11.99944305419922 77.75421142578125 -9.669242858886719 81.11611175537109 -6.958023071289062 83.82734680175781 C -2.202484130859375 88.5828857421875 3.704498291015625 92.23350524902344 10.59881591796875 94.67782592773438 C 17.10207748413086 96.98348999023438 24.27317428588867 98.15257263183594 31.91293716430664 98.15257263183594 C 41.37327575683594 98.15257263183594 51.13915634155273 96.3201904296875 60.15483856201172 92.85350799560547 C 69.34043884277344 89.32148742675781 77.45925903320312 84.19099426269531 83.63357543945312 78.01669311523438 C 86.39253234863281 75.25770568847656 88.88319396972656 72.08470916748047 91.03635406494141 68.58580780029297 C 93.12077331542969 65.19863128662109 94.90489196777344 61.48126983642578 96.33919525146484 57.53699111938477 C 97.74003601074219 53.68465042114258 98.81282043457031 49.60168838500977 99.52774047851562 45.40155029296875 C 100.2337799072266 41.25364685058594 100.5917587280273 36.98725128173828 100.5917587280273 32.72089004516602 C 100.5917587280273 28.45452880859375 100.2337799072266 24.18814849853516 99.52774047851562 20.04022979736328 C 98.81282043457031 15.840087890625 97.74003601074219 11.75714874267578 96.33919525146484 7.904808044433594 C 94.90489196777344 3.96051025390625 93.12077331542969 0.2431488037109375 91.03635406494141 -3.144012451171875 C 88.88319396972656 -6.642913818359375 86.39253234863281 -9.815933227539062 83.63357543945312 -12.57489013671875 C 76.85913848876953 -19.34932708740234 68.85551452636719 -24.97660827636719 60.48795700073242 -28.84841156005859 C 56.25027465820312 -30.80924987792969 51.92861557006836 -32.32022857666016 47.64299774169922 -33.33940887451172 C 43.24827575683594 -34.38452911376953 38.88009643554688 -34.91445159912109 34.65977478027344 -34.91445159912109 M 34.65977096557617 -35.91445159912109 C 52.16754150390625 -35.91445159912109 70.58670043945312 -27.03597259521484 84.34067535400391 -13.28199005126953 C 107.3421173095703 9.719448089599609 107.3421173095703 55.72232818603516 84.34067535400391 78.72378540039062 C 71.41078948974609 91.65367889404297 51.20793914794922 99.15258026123047 31.91293334960938 99.15258026123047 C 16.88336181640625 99.15258026123047 2.406440734863281 94.60601043701172 -7.665122985839844 84.53444671630859 C -30.66656494140625 61.53300857543945 -20.72158050537109 0.3504905700683594 2.279853820800781 -22.65094757080078 C 11.52732086181641 -31.89842224121094 22.88844680786133 -35.91445159912109 34.65977096557617 -35.91445159912109 Z"/></g><g class="b" transform="translate(49.534 67.514)"><path class="c" d="M-.9-24.486c19.82-19.82,50.89-11.747,70.71,8.073s19.82,59.46,0,79.28-59.46,24.827-79.28,5.007S-20.722-4.666-.9-24.486Z"/><path class="d" d="M 26.99876403808594 -34.91445922851562 C 21.90640258789062 -34.91445922851562 17.06198120117188 -34.02072906494141 12.60007476806641 -32.25809478759766 C 7.866382598876953 -30.38807678222656 3.5614013671875 -27.53513336181641 -0.1952552795410156 -23.77845764160156 C -4.880455017089844 -19.09325790405273 -9.122978210449219 -12.28931427001953 -12.46414184570312 -4.102184295654297 C -15.71750640869141 3.869724273681641 -17.9979248046875 12.83054161071777 -19.05886840820312 21.8115406036377 C -20.15457916259766 31.08666801452637 -19.89302062988281 40.02650451660156 -18.30247497558594 47.66461181640625 C -17.46169281005859 51.7021598815918 -16.25157928466797 55.37952423095703 -14.70571136474609 58.59454345703125 C -13.08866882324219 61.95757675170898 -11.08982086181641 64.84172058105469 -8.764656066894531 67.16688537597656 C -4.68157958984375 71.24996185302734 0.3909835815429688 74.38468933105469 6.312110900878906 76.48396301269531 C 11.90096282958984 78.46543121337891 18.06462097167969 79.47012329101562 24.63185501098633 79.47012329101562 C 32.76685333251953 79.47012329101562 41.16476440429688 77.89437866210938 48.91770935058594 74.91325378417969 C 56.81485748291016 71.87667083740234 63.79401779174805 67.46665191650391 69.10073089599609 62.15994262695312 C 71.470458984375 59.79021453857422 73.60987091064453 57.06461334228516 75.45957946777344 54.0588493347168 C 77.25076293945312 51.14815902709961 78.78401947021484 47.95346832275391 80.0167236328125 44.56352233886719 C 82.40850830078125 37.98610687255859 83.67274475097656 30.60814094543457 83.67274475097656 23.22726821899414 C 83.67274475097656 15.84639549255371 82.40850830078125 8.468433380126953 80.0167236328125 1.891014099121094 C 78.78401947021484 -1.498931884765625 77.25076293945312 -4.693622589111328 75.45957946777344 -7.604312896728516 C 73.60987091064453 -10.61007690429688 71.470458984375 -13.33567810058594 69.10073089599609 -15.70540618896484 C 63.27471160888672 -21.53142547607422 56.39187240600586 -26.37076568603516 49.19631195068359 -29.70025634765625 C 45.55314636230469 -31.38600158691406 41.83802032470703 -32.68495178222656 38.15414428710938 -33.56104278564453 C 34.37778472900391 -34.45909881591797 30.62456512451172 -34.91445922851562 26.99876403808594 -34.91445922851562 M 26.99876022338867 -35.91445159912109 C 42.08486175537109 -35.91445159912109 57.95629501342773 -28.26404571533203 69.80783843994141 -16.41251373291016 C 89.62770843505859 3.407379150390625 89.62770843505859 43.04716110229492 69.80783843994141 62.86705017089844 C 58.66639709472656 74.00848388671875 41.25798797607422 80.47013092041016 24.63186264038086 80.47013092041016 C 11.68117523193359 80.47013092041016 -0.7933006286621094 76.55244445800781 -9.471763610839844 67.87399291992188 C -29.29163360595703 48.05410385131836 -20.72225189208984 -4.665657043457031 -0.9023628234863281 -24.48556518554688 C 7.065998077392578 -32.45392608642578 16.85564041137695 -35.91445159912109 26.99876022338867 -35.91445159912109 Z"/></g><g class="b" transform="translate(56.004 74.656)"><path class="c" d="M-3.335-25.888C14.052-43.276,41.309-36.193,58.7-18.806s17.387,52.162,0,69.549S6.534,72.523-10.853,55.136-20.723-8.5-3.335-25.888Z"/><path class="d" d="M 21.14137077331543 -34.91445159912109 C 16.68949317932129 -34.91445159912109 12.45481872558594 -34.13329696655273 8.554954528808594 -32.59268188476562 C 4.417942047119141 -30.95840454101562 0.6553573608398438 -28.46479034423828 -2.628307342529297 -25.18114471435547 C -6.727027893066406 -21.08240509033203 -10.43956756591797 -15.12749862670898 -13.36456680297852 -7.960189819335938 C -16.21450424194336 -0.9767742156982422 -18.21220016479492 6.873208999633789 -19.14165878295898 14.74111747741699 C -20.10135269165039 22.86490249633789 -19.87249374389648 30.69391822814941 -18.47981643676758 37.38176345825195 C -17.74425888061523 40.91405487060547 -16.68586349487305 44.13060760498047 -15.33403015136719 46.94208526611328 C -13.92145919799805 49.8798713684082 -12.17593765258789 52.39875030517578 -10.14595031738281 54.42873382568359 C -6.577014923095703 57.99767303466797 -2.142414093017578 60.73794555664062 3.034648895263672 62.57342529296875 C 7.924369812011719 64.30702209472656 13.31774139404297 65.18603515625 19.06495475769043 65.18603515625 C 26.18661689758301 65.18603515625 33.53860092163086 63.8065185546875 40.32609558105469 61.19660949707031 C 47.23809432983398 58.53884124755859 53.34592437744141 54.67967224121094 57.98928070068359 50.03631591796875 C 60.0614013671875 47.96419525146484 61.93227767944336 45.58067321777344 63.54995727539062 42.95195007324219 C 65.11697387695312 40.40554809570312 66.45840454101562 37.6104736328125 67.5369873046875 34.64437866210938 C 69.63038635253906 28.88750267028809 70.73689270019531 22.42956352233887 70.73689270019531 15.96870231628418 C 70.73689270019531 9.50782585144043 69.63038635253906 3.049886703491211 67.5369873046875 -2.706989288330078 C 66.45840454101562 -5.673084259033203 65.11697387695312 -8.468143463134766 63.54995727539062 -11.01456069946289 C 61.93227767944336 -13.64326858520508 60.0614013671875 -16.02679061889648 57.98928070068359 -18.09891128540039 C 52.88840103149414 -23.19979095458984 46.86249542236328 -27.43668365478516 40.56303405761719 -30.35154342651367 C 37.37441635131836 -31.82697296142578 34.123046875 -32.96380615234375 30.89923286437988 -33.73046875 C 27.59564781188965 -34.51609802246094 24.3126163482666 -34.91445159912109 21.14137077331543 -34.91445159912109 M 21.14136695861816 -35.91445159912109 C 34.37591934204102 -35.91445159912109 48.29941177368164 -29.20299530029297 58.69638824462891 -18.80602264404297 C 76.083740234375 -1.418666839599609 76.083740234375 33.35605621337891 58.69638824462891 50.74342346191406 C 48.92235946655273 60.51743316650391 33.6505241394043 66.18603515625 19.06495666503906 66.18603515625 C 7.7037353515625 66.18603515625 -3.239723205566406 62.74917602539062 -10.85306167602539 55.13584136962891 C -28.24041366577148 37.74848556518555 -20.7227668762207 -8.500881195068359 -3.335414886474609 -25.88825225830078 C 3.654979705810547 -32.87863922119141 12.24313354492188 -35.91445159912109 21.14136695861816 -35.91445159912109 Z"/></g><g class="b" transform="translate(64.937 84.523)"><path class="c" d="M-6.7-27.826c14.027-14.027,36.017-8.314,50.044,5.714S57.375,19.97,43.348,34,1.266,51.568-12.761,37.541-20.723-13.8-6.7-27.826Z"/><path class="d" d="M 13.05049896240234 -34.91444396972656 C 9.483362197875977 -34.91444396972656 6.090911865234375 -34.28879547119141 2.967386245727539 -33.05487060546875 C -0.3454132080078125 -31.74618148803711 -3.358802795410156 -29.74895858764648 -5.98907470703125 -27.11868286132812 C -9.277713775634766 -23.83005905151367 -12.25820159912109 -19.04792022705078 -14.60829925537109 -13.28928184509277 C -16.9010124206543 -7.671295166015625 -18.50816345214844 -1.355707168579102 -19.25600051879883 4.974692344665527 C -20.02781295776367 11.50813007354736 -19.8441276550293 17.80273056030273 -18.72478866577148 23.17801666259766 C -18.13456344604492 26.01238059997559 -17.28575134277344 28.59241676330566 -16.20193862915039 30.84647941589355 C -15.07181167602539 33.19688034057617 -13.67622756958008 35.211181640625 -12.05396270751953 36.83344268798828 C -9.195224761962891 39.69219207763672 -5.641849517822266 41.88760375976562 -1.492565155029297 43.35869216918945 C 2.431423187255859 44.74991607666016 6.760810852050781 45.45531845092773 11.37533569335938 45.45531845092773 C 23.15673637390137 45.45531845092773 35.13702392578125 40.79377746582031 42.64096069335938 33.28984069824219 C 45.94419860839844 29.98661804199219 48.52061080932617 25.83252906799316 50.29862213134766 20.94297981262207 C 51.97987365722656 16.31954193115234 52.86852264404297 11.13241767883301 52.86852264404297 5.942379951477051 C 52.86852264404297 0.7523422241210938 51.97987365722656 -4.434782981872559 50.29862213134766 -9.058219909667969 C 48.52061080932617 -13.94776916503906 45.94419860839844 -18.10185813903809 42.64096069335938 -21.40508270263672 C 38.54172515869141 -25.50433349609375 33.69951248168945 -28.9090576171875 28.6378116607666 -31.25118255615234 C 26.07704925537109 -32.43608093261719 23.46626091003418 -33.34896850585938 20.87796020507812 -33.96450805664062 C 18.2274112701416 -34.59484481811523 15.59387397766113 -34.91444396972656 13.05049896240234 -34.91444396972656 M 13.05049705505371 -35.91444396972656 C 23.72749710083008 -35.91444396972656 34.96029663085938 -30.49997329711914 43.34807586669922 -22.11219596862793 C 57.37535095214844 -8.084907531738281 57.37535095214844 19.96966743469238 43.34807586669922 33.99695587158203 C 35.46286010742188 41.88216018676758 23.14227676391602 46.45531463623047 11.37534141540527 46.45531463623047 C 2.209651947021484 46.45531463623047 -6.618999481201172 43.68262481689453 -12.76107788085938 37.54055404663086 C -26.78834915161133 23.51325607299805 -20.72347640991211 -13.79850769042969 -6.696189880371094 -27.8257942199707 C -1.056678771972656 -33.46530151367188 5.871829986572266 -35.91444396972656 13.05049705505371 -35.91444396972656 Z"/></g><g class="b" transform="translate(70.026 90.355)"><path class="c" d="M-8.61-28.929C3.5-41.043,22.493-36.109,34.607-24s12.114,36.341,0,48.455S-1.734,39.633-13.848,27.52-20.724-16.816-8.61-28.929Z"/><path class="d" d="M 8.442536354064941 -34.91444778442383 C 5.379269599914551 -34.91444778442383 2.46649169921875 -34.37736129760742 -0.2148857116699219 -33.31810760498047 C -3.05827522277832 -32.19484710693359 -5.644975662231445 -30.48032760620117 -7.903131484985352 -28.22216033935547 C -10.73039817810059 -25.39490509033203 -13.29395294189453 -21.28069305419922 -15.31665420532227 -16.32432746887207 C -17.29200744628906 -11.48398303985596 -18.67673110961914 -6.042293548583984 -19.32112121582031 -0.5875270366668701 C -19.98594284057617 5.04015064239502 -19.82797622680664 10.46088409423828 -18.86429595947266 15.0886173248291 C -18.35684204101562 17.5254955291748 -17.62739562988281 19.74302864074707 -16.69624328613281 21.67961692810059 C -15.72695159912109 23.69548416137695 -14.53067398071289 25.42242813110352 -13.14062118530273 26.81247329711914 C -10.68634223937988 29.26675033569336 -7.634853363037109 31.15185165405273 -4.070919036865234 32.4154052734375 C -0.6969203948974609 33.61162948608398 3.026491165161133 34.21816253662109 6.995913505554199 34.21816253662109 C 17.13520240783691 34.21816253662109 27.44413566589355 30.20788383483887 33.89970397949219 23.75230598449707 C 36.73810195922852 20.91390609741211 38.95235824584961 17.34330558776855 40.48094940185547 13.13968372344971 C 41.92745971679688 9.161762237548828 42.69204711914062 4.698406219482422 42.69204711914062 0.2321285009384155 C 42.69204711914062 -4.234148979187012 41.92745971679688 -8.697504997253418 40.48094940185547 -12.67541599273682 C 38.95235824584961 -16.87903785705566 36.73810195922852 -20.44963836669922 33.89970397949219 -23.28803825378418 C 30.37091445922852 -26.81683731079102 26.20283508300781 -29.74761581420898 21.8460807800293 -31.7635612487793 C 17.39121437072754 -33.82488250732422 12.75634670257568 -34.91444778442383 8.442536354064941 -34.91444778442383 M 8.442537307739258 -35.91444396972656 C 17.6629467010498 -35.91444396972656 27.36332893371582 -31.23863410949707 34.6068115234375 -23.99514961242676 C 46.720458984375 -11.88150501251221 46.720458984375 12.34576225280762 34.6068115234375 24.45941734313965 C 27.79733085632324 31.26889419555664 17.15756416320801 35.21816253662109 6.995914459228516 35.21816253662109 C -0.9193592071533203 35.21816253662109 -8.5435791015625 32.82373046875 -13.84773254394531 27.51958465576172 C -25.96136474609375 15.40593910217285 -20.72388458251953 -16.81563949584961 -8.610240936279297 -28.92927169799805 C -3.740093231201172 -33.79941940307617 2.243207931518555 -35.91444396972656 8.442537307739258 -35.91444396972656 Z"/></g><g class="b" transform="translate(83.873 105.646)"><path class="c" d="M-13.82-31.933c6.905-6.905,17.73-4.093,24.635,2.813S17.721-8.4,10.816-1.5-9.9,7.15-16.805.245-20.725-25.027-13.82-31.933Z"/><path class="d" d="M -4.09906530380249 -34.91444396972656 C -5.7909255027771 -34.91444396972656 -7.398165702819824 -34.61840438842773 -8.87613582611084 -34.03454208374023 C -10.4419059753418 -33.4160041809082 -11.86728477478027 -32.47091293334961 -13.11265563964844 -31.22553443908691 C -14.68419551849365 -29.65400314331055 -16.11298561096191 -27.35771369934082 -17.24457550048828 -24.58491325378418 C -18.35616683959961 -21.86110305786133 -19.13550567626953 -18.79787445068359 -19.49835586547852 -15.726393699646 C -19.87195587158203 -12.56390380859375 -19.78399658203125 -9.52165412902832 -19.24400520324707 -6.928524017333984 C -18.66445541381836 -4.145414352416992 -17.60606575012207 -1.969724655151367 -16.09821510314941 -0.461883544921875 C -13.45714569091797 2.17918586730957 -9.488625526428223 3.633687973022461 -4.92369556427002 3.633687973022461 C 0.7462143898010254 3.633687973022461 6.506174087524414 1.395936965942383 10.1084041595459 -2.206293106079102 C 11.6816349029541 -3.779523849487305 12.91017532348633 -5.762042999267578 13.75989532470703 -8.098773956298828 C 14.56752395629883 -10.31975364685059 14.99441528320312 -12.81321334838867 14.99441528320312 -15.30960464477539 C 14.99441528320312 -17.80598449707031 14.56752395629883 -20.2994441986084 13.75989532470703 -22.52042388916016 C 12.91017532348633 -24.85715484619141 11.6816349029541 -26.83967399597168 10.1084041595459 -28.41290283203125 C 6.037354469299316 -32.48396301269531 0.7261443138122559 -34.91444396972656 -4.09906530380249 -34.91444396972656 M -4.099067211151123 -35.91444396972656 C 1.15689754486084 -35.91444396972656 6.686465263366699 -33.24906158447266 10.81551361083984 -29.12001419067383 C 17.7207145690918 -22.21480369567871 17.7207145690918 -8.404394149780273 10.81551361083984 -1.499183654785156 C 6.933862686157227 2.382463455200195 0.8688063621520996 4.633687973022461 -4.923700332641602 4.633687973022461 C -9.435691833496094 4.633687973022461 -13.78176689147949 3.268781661987305 -16.80532455444336 0.2452259063720703 C -23.71052551269531 -6.659984588623047 -20.7249755859375 -25.02744293212891 -13.81976509094238 -31.93264389038086 C -11.04360485076904 -34.70880508422852 -7.632908344268799 -35.91444396972656 -4.099067211151123 -35.91444396972656 Z"/></g></g></g></svg>