<svg xmlns="http://www.w3.org/2000/svg" width="93.93" height="65.579" viewBox="0 0 93.93 65.579">
  <g id="Layer_x0020_1" transform="translate(0 -12.773)">
    <path id="Path_158" data-name="Path 158" d="M0,1323.271H2.17a7.93,7.93,0,0,1,2.557.31,2.79,2.79,0,0,1,1.24,1.085,3.415,3.415,0,0,1,.426,1.744,2.96,2.96,0,0,1-.581,1.86,3.03,3.03,0,0,1-1.589,1.046,9.453,9.453,0,0,1-2.17.155v4.573H0Zm2.054,4.224h.659a3.191,3.191,0,0,0,1.046-.116.856.856,0,0,0,.5-.387.935.935,0,0,0,.155-.581,1.015,1.015,0,0,0-.465-.93,2.649,2.649,0,0,0-1.317-.233H2.054Zm12.051-1.434h1.976v7.982H14.1v-.852a4.391,4.391,0,0,1-1.2.814,3.413,3.413,0,0,1-1.279.233,3.574,3.574,0,0,1-2.674-1.2,4.163,4.163,0,0,1-1.124-2.945,4.369,4.369,0,0,1,1.085-3.022,3.457,3.457,0,0,1,2.674-1.2,4.022,4.022,0,0,1,1.356.271,5.293,5.293,0,0,1,1.162.814Zm-2.131,1.666a1.932,1.932,0,0,0-1.511.62,2.654,2.654,0,0,0,0,3.41,2.153,2.153,0,0,0,3.1,0,2.654,2.654,0,0,0,0-3.41A2.1,2.1,0,0,0,11.974,1327.728ZM23.986,1323H26v11.044H23.986v-.852a4.244,4.244,0,0,1-1.162.814,3.413,3.413,0,0,1-1.279.233,3.458,3.458,0,0,1-2.674-1.2,4,4,0,0,1-1.124-2.945,4.2,4.2,0,0,1,1.085-3.022,3.435,3.435,0,0,1,2.635-1.2,3.84,3.84,0,0,1,1.356.271,3.944,3.944,0,0,1,1.162.814Zm-2.092,4.728a2.074,2.074,0,0,0-1.55.62,2.654,2.654,0,0,0,0,3.41,2.108,2.108,0,0,0,1.55.659,2.046,2.046,0,0,0,1.55-.659,2.536,2.536,0,0,0,0-3.41A2.016,2.016,0,0,0,21.894,1327.728ZM33.906,1323h1.976v11.044H33.906v-.852a4.244,4.244,0,0,1-1.162.814,3.719,3.719,0,0,1-1.279.233,3.458,3.458,0,0,1-2.674-1.2,4.033,4.033,0,0,1-1.162-2.945,4.22,4.22,0,0,1,1.124-3.022,3.324,3.324,0,0,1,2.635-1.2,4.022,4.022,0,0,1,1.356.271,3.944,3.944,0,0,1,1.162.814Zm-2.092,4.728a2.016,2.016,0,0,0-1.55.62,2.654,2.654,0,0,0,0,3.41,2.153,2.153,0,0,0,3.1,0,2.654,2.654,0,0,0,0-3.41A2.074,2.074,0,0,0,31.814,1327.728Zm5.192-1.666H39.06l2.092,5,2.286-5h2.015l-4.96,10.889H38.44l1.627-3.487Zm23.947-.891-1.434,1.356a4.49,4.49,0,0,0-3.332-1.55,3.574,3.574,0,0,0-3.642,3.643,3.98,3.98,0,0,0,.465,1.937,3.58,3.58,0,0,0,1.318,1.317,3.936,3.936,0,0,0,1.9.465,3.888,3.888,0,0,0,1.666-.349,7.165,7.165,0,0,0,1.627-1.2l1.356,1.434a6.677,6.677,0,0,1-2.247,1.627,5.9,5.9,0,0,1-2.4.465,5.448,5.448,0,0,1-5.735-5.7,5.315,5.315,0,0,1,.736-2.829,5.245,5.245,0,0,1,2.092-2.015,5.825,5.825,0,0,1,2.906-.775,6.778,6.778,0,0,1,2.6.543A6.654,6.654,0,0,1,60.954,1325.17Zm5.309.7a4.2,4.2,0,0,1,2.131.581,4.2,4.2,0,0,1,1.55,5.7,4.249,4.249,0,0,1-1.55,1.55,4.354,4.354,0,0,1-2.131.542,3.89,3.89,0,0,1-2.906-1.2,4.1,4.1,0,0,1-1.24-2.984,4.221,4.221,0,0,1,4.146-4.185Zm.039,1.9a2.016,2.016,0,0,0-1.55.62,2.612,2.612,0,0,0-.039,3.333,2.132,2.132,0,0,0,1.589.659,2.108,2.108,0,0,0,1.55-.659,2.549,2.549,0,0,0,0-3.333A2.016,2.016,0,0,0,66.3,1327.766Zm4.96-1.7h2.054l2.015,4.727,2.015-4.727H79.36l-3.41,7.982H74.671Zm17.244,4.573H82.072a2.461,2.461,0,0,0,.736,1.356,2.558,2.558,0,0,0,1.55.5,2.52,2.52,0,0,0,1.9-.814l1.7.814a4.051,4.051,0,0,1-1.511,1.318,4.91,4.91,0,0,1-2.093.426,4.089,4.089,0,0,1-3.022-1.162,4,4,0,0,1-1.2-2.984,4.088,4.088,0,0,1,1.2-3.022,4,4,0,0,1,2.945-1.2,4.271,4.271,0,0,1,3.061,1.2,4.4,4.4,0,0,1,1.162,3.177Zm-2.015-1.589a1.88,1.88,0,0,0-.775-1.046,2.263,2.263,0,0,0-1.356-.426,2.466,2.466,0,0,0-1.472.465,2.682,2.682,0,0,0-.7,1.007Zm3.178-2.984h1.7v1.008a2.832,2.832,0,0,1,.736-.891,1.92,1.92,0,0,1,1.007-.31,1.627,1.627,0,0,1,.814.233l-.62,1.705a1.3,1.3,0,0,0-.581-.155,1.011,1.011,0,0,0-.775.542,5.61,5.61,0,0,0-.31,2.248v3.6H89.667Z" transform="translate(0 -1258.597)" fill="#3e4095"/>
    <path id="Path_159" data-name="Path 159" d="M46.965,14A46.983,46.983,0,0,1,93.93,60.965c0-2.867-4.534-5.192-10.075-5.192-5.58,0-10.114,2.325-10.114,5.192h-.969c0-2.867-5.7-5.192-12.71-5.192S47.391,58.1,47.391,60.965H46.306c0-2.867-5.58-5.192-12.516-5.192S21.274,58.1,21.274,60.965H20.3c0-2.867-4.572-5.192-10.152-5.192C4.534,55.772,0,58.1,0,60.965A46.983,46.983,0,0,1,46.965,14Z" transform="translate(0 -0.321)" fill="#00a859" fill-rule="evenodd"/>
    <g id="Group_219" data-name="Group 219" transform="translate(20.657 13.666)">
      <path id="Path_160" data-name="Path 160" d="M559.4,13.679c13.562-.62,27.125,21.119,26.272,46.965M559.4,13.679c-13.562-.62-27.086,21.119-26.272,46.965" transform="translate(-533.097 -13.666)" fill="none" stroke="#3e4095" stroke-width="1.78" fill-rule="evenodd"/>
    </g>
    <g id="Group_220" data-name="Group 220" transform="translate(46.965 13.679)">
      <line id="Line_23" data-name="Line 23" y1="46.965" transform="translate(0 0)" fill="none" stroke="#3e4095" stroke-width="1.78"/>
    </g>
  </g>
</svg>
